<svg xmlns="http://www.w3.org/2000/svg" viewBox="0 0 375 436"><path d="M-34.2 689.5H-81S106.8 111.3 126.8 50.1c9.3-28.7 36-48 66.1-48h83.7c25.2 0 46.3 10.7 59.4 28.7 13.1 18 16.8 41.1 9.2 64.6-7.6 23.5-14.9 45.7-21.5 66-8.9 27.5-33.6 46.4-62.2 47.9 0 0-.1 0 39.9-123.2 3.5-10.9 2.2-21.5-3.3-29.1-5.5-7.6-14.9-12.1-27.3-12.1H199c-14.1 0-26.6 9.1-30.9 22.5L-34.2 689.5z" fill-rule="evenodd" clip-rule="evenodd" fill="#f0145a"/><linearGradient id="a" gradientUnits="userSpaceOnUse" x1="192.543" y1="299.751" x2="297.462" y2="244.913" gradientTransform="matrix(1 0 0 -1 0 436)"><stop offset="0" stop-color="#f0145a"/><stop offset="1" stop-color="#693264"/></linearGradient><path d="M261.4 209.2h-94.3l41.6-126.4 47 .3-27.3 83.4h46.9l-13.9 42.7z" fill-rule="evenodd" clip-rule="evenodd" fill="url(#a)"/></svg>