<svg xmlns="http://www.w3.org/2000/svg" width="42" height="48" fill="none"><g fill-rule="evenodd"><path d="M30.758 26.645H18.829l5.256-15.992 5.947.035-3.453 10.546 5.929.004-1.75 5.407z" fill="url(#A)"/><path d="M6.404 47.404H.5l13.266-40.84A8.773 8.773 0 0122.109.5h10.556c3.183 0 5.84 1.345 7.492 3.618s2.119 5.181 1.156 8.148L38.606 20.6a8.74 8.74 0 01-7.847 6.047s-.019-.006 5.031-15.555c.446-1.372.283-2.715-.417-3.678s-1.879-1.533-3.44-1.533h-9.058a4.107 4.107 0 00-3.905 2.838L6.404 47.404z" fill="#f0145a"/></g><defs><linearGradient id="A" x1="18.828" y1="23.582" x2="32.1" y2="30.517" gradientUnits="userSpaceOnUse"><stop stop-color="#f0145a"/><stop offset="1" stop-color="#693264"/></linearGradient></defs></svg>