<svg xmlns="http://www.w3.org/2000/svg" width="22" height="24" fill="none"><g fill-rule="evenodd"><path d="M15.998 13.351h-6.11l2.692-8.166 3.046.018-1.768 5.385 3.037.002-.896 2.761z" fill="url(#A)"/><path d="M3.524 23.951H.5L7.295 3.097A4.491 4.491 0 0111.568 0h5.407c1.63 0 2.991.687 3.837 1.847s1.085 2.646.592 4.161l-1.387 4.256a4.475 4.475 0 01-4.019 3.088s-.01-.003 2.577-7.943c.228-.701.145-1.386-.214-1.878s-.962-.783-1.762-.783H11.96c-.911 0-1.718.585-2 1.449L3.524 23.951z" fill="#f0145a"/></g><defs><linearGradient id="A" x1="9.887" y1="11.787" x2="16.676" y2="15.345" gradientUnits="userSpaceOnUse"><stop stop-color="#f0145a"/><stop offset="1" stop-color="#693264"/></linearGradient></defs></svg>