<svg width="79" height="31" fill="none" xmlns="http://www.w3.org/2000/svg"><path d="M5.676 28.546c0-.556-.191-1.025-.567-1.411a1.836 1.836 0 00-1.367-.578c-.485 0-.905.153-1.259.463a1.914 1.914 0 00-.648 1.117h-.518V26.64H.5v3.814h.817V28.9h.518c.081.463.3.855.648 1.166.349.31.768.468 1.259.468.533 0 .991-.19 1.367-.577a1.94 1.94 0 00.567-1.411zm-.818 0c0 .36-.109.659-.326.893a1.043 1.043 0 01-1.575 0c-.223-.234-.332-.534-.332-.893 0-.36.109-.66.332-.9a1.057 1.057 0 011.574 0c.218.24.327.54.327.9zM6.98 26.64v3.813h.817V29.2h.79c.393 0 .72-.126.976-.37.256-.246.386-.551.386-.91 0-.366-.13-.665-.386-.916-.262-.245-.583-.365-.976-.365H6.98zm1.58.735c.164 0 .3.054.409.158a.514.514 0 01.163.386.515.515 0 01-.163.387.572.572 0 01-.409.158h-.763v-1.09h.763zm6.07 3.078v-3.814h-.708l-1.88 2.425v-2.425h-.816v3.814h.708l1.88-2.425v2.425h.817zm1.032-.736v1.526h.818v-.79h2.288v.79h.817v-1.526h-.463V26.64H16.48v1.172c0 .256-.022.495-.066.719a3.644 3.644 0 01-.142.544 2.447 2.447 0 01-.185.365c-.07.11-.114.18-.141.213-.033.027-.05.054-.066.065h-.218zm1.635-1.906v-.436h1.008v2.342h-1.607l.065-.065c.038-.044.087-.114.147-.218s.114-.223.174-.36c.06-.136.11-.321.147-.544.044-.224.066-.463.066-.72zm6.859 2.642v-3.814h-.708l-1.88 2.425v-2.425h-.817v3.814h.708l1.88-2.425v2.425h.817zm2.285-3.813h-.817v1.17c0 .458.12.812.36 1.063.244.256.577.381 1.002.381.365 0 .664-.07.899-.218v1.417h.817v-3.814h-.817v1.607l-.093.071c-.06.044-.152.087-.278.136a1.187 1.187 0 01-.392.066c-.218 0-.387-.06-.507-.18-.114-.125-.174-.3-.174-.528v-1.172zm7.052 0h-.818v1.525h-1.634v-1.526h-.817v3.814h.817V28.9h1.634v1.553h.818v-3.814zm3.485 2.206h-.927l.464-1.253.463 1.253zm.272.708l.327.899h.872l-1.498-3.814h-.872l-1.498 3.814h.871l.327-.9h1.471zm4.761-2.914h-.817v3.813h.817v-1.09l.49-.545 1.117 1.635h.954l-1.526-2.234 1.417-1.58h-.953l-1.499 1.662v-1.662zm4.219 1.906c0-.349.12-.649.36-.888.234-.245.523-.365.866-.365.344 0 .633.12.867.365.24.24.36.539.36.888 0 .354-.12.648-.36.888a1.148 1.148 0 01-.867.365c-.343 0-.632-.12-.866-.365-.24-.24-.36-.534-.36-.888zm-.844 0a1.9 1.9 0 00.6 1.405c.397.387.888.583 1.47.583.583 0 1.074-.196 1.471-.583a1.9 1.9 0 00.6-1.405 1.89 1.89 0 00-.6-1.406c-.397-.387-.888-.583-1.47-.583-.584 0-1.074.196-1.471.583a1.89 1.89 0 00-.6 1.406zm7.488-.246l-1.307-1.66h-.736v3.813h.817v-2.534l1.226 1.553L54.1 27.91v2.544h.817V26.64h-.724l-1.319 1.662zm6.806-1.66h-3.242v3.813h.817v-3.078h1.608v3.078h.817v-3.814zm3.485 2.206h-.926l.463-1.253.463 1.253zm.273.708l.326.899h.872l-1.498-3.814h-.872l-1.498 3.814h.872l.327-.9h1.47zm5.554-2.914h-.818v1.525H66.54v-1.526h-.817v3.814h.817V28.9h1.634v1.553h.818v-3.814zm2.339 0h-.817v3.813h.817v-3.814zm4.355 0h-1.689c-.38 0-.692.119-.937.359-.245.24-.37.54-.37.893 0 .153.027.294.07.43.05.137.104.24.17.317.06.076.125.147.207.212.076.065.13.109.163.125.027.011.055.028.07.033l-.816 1.444h.871l.736-1.335h.708v1.335h.817v-3.814zm-2.179 1.252a.506.506 0 01.518-.518h.844v1.009h-.844a.524.524 0 01-.37-.142.465.465 0 01-.148-.349z" fill="#46466E"/><path d="M2.99 0H.5v17.988h2.49v-6.674c0-1.129.281-2.02.843-2.646.562-.628 1.33-.954 2.283-.954.818 0 1.502.301 2.051.878.55.59.83 1.33.83 2.22V18H11.5v-7.188c0-1.655-.452-2.96-1.355-3.938-.904-.979-2.088-1.468-3.528-1.468-.416 0-.83.05-1.234.163a5.2 5.2 0 00-1.013.377 5.139 5.139 0 00-.757.464c-.232.175-.39.3-.464.376-.073.075-.134.126-.158.163V0z" fill="#F0145A"/><path d="M17.067 0H14.5v17.973h2.567V0zm15.144 12.709l.128-1.284c0-1.72-.564-3.158-1.72-4.313-1.155-1.156-2.593-1.72-4.313-1.72-1.72 0-3.21.616-4.442 1.848-1.232 1.233-1.849 2.696-1.849 4.442 0 1.797.642 3.338 1.9 4.621 1.258 1.284 2.773 1.926 4.52 1.926.667 0 1.283-.103 1.9-.282.615-.206 1.129-.411 1.488-.616.385-.232.77-.488 1.104-.77.334-.283.565-.489.668-.617.103-.128.18-.205.23-.282l-1.668-1.67-.385.489c-.257.308-.693.616-1.31.95a4.3 4.3 0 01-2.028.487c-1.001 0-1.849-.308-2.567-.95-.72-.642-1.156-1.386-1.284-2.259h9.628zm-5.905-5.135c.95 0 1.72.282 2.362.822.616.564 1.001 1.258 1.155 2.13h-7.137c.23-.872.642-1.566 1.283-2.13.616-.54 1.412-.822 2.337-.822zm17.879 9.654c0 1.13-.334 2.054-1.027 2.773-.667.693-1.514 1.052-2.567 1.052-.462 0-.925-.077-1.361-.205a4.042 4.042 0 01-1.053-.462 5.954 5.954 0 01-.796-.59c-.23-.232-.385-.386-.462-.463-.077-.077-.128-.154-.18-.205l-1.668 1.669.205.256c.128.18.36.411.668.668.308.231.667.488 1.078.744.41.232.924.437 1.566.617a7.4 7.4 0 002.003.282c1.746 0 3.184-.59 4.39-1.771 1.181-1.207 1.772-2.645 1.772-4.39V5.647h-2.568v1.284l-.436-.385c-.283-.257-.72-.514-1.335-.77a5.085 5.085 0 00-1.952-.385c-1.566 0-2.9.59-4.056 1.797-1.156 1.207-1.72 2.644-1.72 4.365 0 1.72.564 3.158 1.72 4.364 1.155 1.207 2.49 1.798 4.056 1.798.437 0 .848-.052 1.284-.154a8.79 8.79 0 001.027-.386c.283-.128.54-.282.77-.462.232-.18.411-.308.463-.36l.18-.179v1.053zm-6.932-5.674c0-1.079.334-1.977 1.027-2.722.693-.745 1.515-1.13 2.44-1.13.924 0 1.745.385 2.438 1.13.668.745 1.027 1.643 1.027 2.722 0 1.078-.36 1.977-1.027 2.721-.693.745-1.514 1.13-2.439 1.13-.924 0-1.746-.385-2.439-1.13-.693-.744-1.027-1.643-1.027-2.721zm22.902 6.418v-7.959c0-1.31-.488-2.413-1.438-3.286-.95-.899-2.182-1.335-3.697-1.335a6.7 6.7 0 00-1.746.23c-.565.18-1.027.36-1.361.566a6.35 6.35 0 00-.976.718c-.308.257-.487.437-.59.54-.077.102-.154.18-.206.256l1.67 1.67.333-.437c.205-.283.565-.54 1.104-.822.54-.282 1.13-.41 1.772-.41.744 0 1.36.23 1.848.667.488.436.72 1.001.72 1.643l-4.494.77c-1.104.18-2.003.617-2.619 1.31-.642.693-.976 1.54-.976 2.542 0 .95.411 1.771 1.233 2.49.847.745 1.874 1.104 3.132 1.104.437 0 .848-.051 1.258-.18.437-.102.77-.23 1.053-.36a3.83 3.83 0 00.77-.461c.231-.18.385-.308.488-.36.077-.077.129-.154.154-.18v1.284h2.568zm-5.906-2.054c-.667 0-1.206-.154-1.592-.462-.41-.308-.59-.667-.59-1.078 0-.437.128-.822.41-1.104a2.06 2.06 0 011.13-.565l3.98-.642v.257c0 1.155-.282 2.028-.873 2.67-.59.616-1.412.924-2.465.924zM65.82 0h-2.567v17.973h2.567V0zm11.674 7.06l-.154-.18a5.531 5.531 0 00-.487-.41c-.232-.18-.488-.334-.77-.514-.283-.154-.668-.282-1.13-.41a6.666 6.666 0 00-1.438-.154c-1.258 0-2.285.359-3.107 1.078-.847.745-1.258 1.566-1.258 2.516 0 .693.154 1.258.462 1.772.308.488.693.847 1.181 1.052.462.231.976.463 1.515.642.54.18 1.027.334 1.515.462.462.154.847.334 1.155.565.308.231.462.54.462.899 0 .462-.18.847-.513 1.13-.334.256-.847.41-1.54.41-.566 0-1.13-.154-1.67-.41-.539-.283-.873-.514-1.052-.694a9.95 9.95 0 01-.36-.436l-1.669 1.669.18.23c.129.155.308.335.565.54.282.231.59.436.924.642.36.205.822.385 1.361.539.54.154 1.13.231 1.72.231 1.361 0 2.49-.385 3.338-1.13.847-.744 1.284-1.668 1.284-2.721 0-.693-.154-1.284-.462-1.746-.308-.488-.694-.847-1.181-1.078a8.963 8.963 0 00-1.515-.642c-.54-.18-1.027-.36-1.515-.462a3.469 3.469 0 01-1.155-.565 1.085 1.085 0 01-.463-.899c0-.334.154-.642.488-.899.308-.256.745-.385 1.31-.385.41 0 .821.103 1.207.283.41.18.693.334.821.462l.282.282 1.67-1.669z" fill="#323264"/></svg>