<svg xmlns="http://www.w3.org/2000/svg" width="32" height="32" fill="none" xmlns:v="https://vecta.io/nano"><path d="M16.097 3.553A12.43 12.43 0 0 0 3.684 15.966 12.43 12.43 0 0 0 16.097 28.38 12.43 12.43 0 0 0 28.51 15.966 12.43 12.43 0 0 0 16.097 3.553zm6.858 11.506h0l-3.594 2.6 1.384 4.23a.66.66 0 0 1 .034.209.67.67 0 0 1-.668.669c-.147 0-.282-.047-.392-.127l-3.622-2.619-3.621 2.619c-.11.079-.245.127-.392.127a.67.67 0 0 1-.67-.669.66.66 0 0 1 .034-.209l1.385-4.23-3.593-2.6h0c-.168-.121-.277-.319-.277-.542a.67.67 0 0 1 .669-.668h4.448l1.377-4.211a.67.67 0 0 1 1.28 0l1.377 4.211h4.449a.67.67 0 0 1 .392 1.21z" fill="#f0145a"/></svg>