<svg xmlns="http://www.w3.org/2000/svg" width="32" height="32" fill="none" xmlns:v="https://vecta.io/nano"><path d="M27.114 6.305a.82.82 0 0 0-.598-.252c-.114 0-.356.094-.723.279l-1.168.624c-.412.23-.899.438-1.46.624s-1.082.28-1.56.28c-.442 0-.832-.084-1.168-.253-1.114-.522-2.084-.911-2.907-1.168s-1.708-.385-2.655-.385c-1.636 0-3.499.532-5.588 1.594l-.94.503-.199-1.455a2.11 2.11 0 0 0 .738-1.598c0-1.173-.951-2.124-2.124-2.124s-2.124.951-2.124 2.125c0 .766.409 1.431 1.016 1.805l2.87 21.045a1.25 1.25 0 0 0 1.237 1.081 1.32 1.32 0 0 0 .171-.011 1.25 1.25 0 0 0 1.069-1.407l-1.153-8.458c2.093-1.038 3.903-1.562 5.426-1.562.646 0 1.277.096 1.892.291s1.127.407 1.534.637.887.443 1.44.637 1.1.293 1.639.293c1.363 0 2.996-.514 4.898-1.54.239-.124.414-.246.524-.365s.166-.29.166-.511V6.903a.82.82 0 0 0-.251-.598z" fill="#f0145a"/></svg>