<svg xmlns="http://www.w3.org/2000/svg" width="32" height="32" fill="#f0145a" xmlns:v="https://vecta.io/nano"><path d="M17.232 18.332v-.558a1.232 1.232 0 1 0-2.463 0v.558a1.232 1.232 0 1 0 2.464 0zm.845.682c-.273.893-1.096 1.549-2.077 1.549s-1.804-.656-2.077-1.549H5.439a3.47 3.47 0 0 1-1.496-.341v5.634c0 1.1.9 2 2 2h20.113c1.1 0 2-.9 2-2v-5.633a3.47 3.47 0 0 1-1.495.34h-8.484 0zm8.401-10.117h-4.8a3.81 3.81 0 0 0-3.754-3.204h-3.846a3.81 3.81 0 0 0-3.754 3.204h-4.8c-1.146 0-2.083.9-2.083 2v4.616a2 2 0 0 0 2 2h8.39a2.17 2.17 0 0 1 .666-1.466c.012-.011.026-.02.039-.032a2.24 2.24 0 0 1 .275-.219c.035-.024.075-.04.111-.06l.248-.131c.069-.029.143-.045.214-.066l.186-.056a2.19 2.19 0 0 1 .862 0c.064.013.123.037.185.056l.215.067c.087.036.166.084.247.131l.113.061c.099.064.188.139.274.219l.039.033a2.17 2.17 0 0 1 .666 1.467h8.39a2 2 0 0 0 2-2v-4.616c0-1.101-.937-2.001-2.083-2.001zm-14.229 0a1.93 1.93 0 0 1 1.829-1.332h3.846a1.93 1.93 0 0 1 1.829 1.332h-7.504z"/></svg>