<svg xmlns="http://www.w3.org/2000/svg" xmlns:xlink="http://www.w3.org/1999/xlink" width="689" height="622" fill="none" xmlns:v="https://vecta.io/nano"><style><![CDATA[.B{fill-opacity:.1}]]></style><g clip-path="url(#A)" fill-rule="evenodd" fill="#fff" class="B"><path d="M564.195 304.898h-3.6l10.796-33.455c.724-2.182 2.79-3.672 5.224-3.704h5.134c4.372.019 6.055 1.739 7.075 4.572.49 1.36.532 3.278.131 4.55l-2.338 7.127c-.689 2.053-2.549 3.426-4.802 3.609l3.968-12.142c.569-1.866-.524-4.412-3.401-4.412-2.012-.024-3.269-.011-5.277 0-1.162.015-2.182.725-2.541 1.806l-10.369 32.049zm14.015-9.583h7.924l-4.475 13.61-3.632-.024 3.37-10.273h-4.29l1.103-3.313z"/><path d="M595.851 277.982h3.602l-10.822 33.455c-.725 2.182-2.793 3.672-5.229 3.704h-5.137c-4.374-.019-6.057-1.739-7.076-4.572-.489-1.36-.531-3.278-.129-4.55l2.344-7.127c.691-2.053 2.553-3.426 4.807-3.609l-3.977 12.142c-.571 1.866.521 4.412 3.399 4.412h5.28c1.164-.015 2.185-.725 2.544-1.806l10.394-32.049zM393.039 500.124h-7.924l4.475-13.61 3.632.024-3.37 10.273h4.29l-1.103 3.313z"/><path d="M375.397 517.457h-3.602l10.822-33.454c.725-2.183 2.793-3.672 5.229-3.705h5.137c4.374.02 6.057 1.739 7.076 4.572.489 1.36.531 3.278.129 4.55l-2.344 7.127c-.691 2.053-2.553 3.426-4.807 3.609l3.977-12.141c.571-1.867-.521-4.413-3.399-4.413-2.014-.024-3.272-.011-5.28 0-1.164.015-2.185.726-2.544 1.806l-10.394 32.049zM501.722 404.18h-7.924l4.476-13.61 3.631.024-3.369 10.273h4.29l-1.104 3.313z"/><path d="M484.081 421.513h-3.602l10.822-33.455c.725-2.182 2.793-3.672 5.229-3.704h5.136c4.375.019 6.058 1.739 7.077 4.572.489 1.36.53 3.278.128 4.55l-2.343 7.126c-.691 2.054-2.553 3.427-4.807 3.61l3.977-12.142c.571-1.866-.522-4.412-3.4-4.412-2.013-.024-3.271-.011-5.28 0-1.163.015-2.184.725-2.543 1.806l-10.394 32.049zm42.799 11.236h7.924l-4.475 13.61-3.632-.024 3.37-10.274h-4.29l1.103-3.312z"/><path d="M544.522 415.416h3.602l-10.822 33.454c-.725 2.183-2.793 3.672-5.229 3.705h-5.137c-4.374-.02-6.057-1.74-7.076-4.572-.489-1.36-.531-3.278-.129-4.55l2.344-7.127c.691-2.053 2.553-3.427 4.807-3.609l-3.977 12.141c-.571 1.866.521 4.413 3.399 4.413h5.28c1.164-.015 2.185-.726 2.544-1.806l10.394-32.049zM287.95 552.327h7.925l-4.476 13.61-3.631-.024 3.369-10.273h-4.29l1.103-3.313z"/><path d="M305.592 534.994h3.602l-10.822 33.455c-.725 2.182-2.793 3.672-5.229 3.704h-5.137c-4.374-.019-6.057-1.739-7.076-4.572-.489-1.36-.53-3.278-.128-4.55l2.343-7.126c.691-2.054 2.553-3.427 4.807-3.61l-3.977 12.142c-.571 1.866.521 4.412 3.4 4.412h5.28c1.163-.015 2.184-.725 2.543-1.806l10.394-32.049z"/><use xlink:href="#B"/><path d="M443.469 458.461h3.602l-10.822 33.455c-.725 2.182-2.793 3.672-5.229 3.704h-5.137c-4.374-.019-6.057-1.739-7.076-4.572-.489-1.36-.53-3.278-.128-4.55l2.343-7.127c.691-2.053 2.553-3.426 4.807-3.609l-3.977 12.142c-.571 1.866.521 4.412 3.4 4.412h5.28c1.163-.015 2.184-.725 2.543-1.806l10.394-32.049z"/><use xlink:href="#C"/><path d="M363.371 575.076h3.602l-10.822 33.454c-.725 2.183-2.794 3.672-5.23 3.705h-5.136c-4.375-.02-6.058-1.739-7.076-4.572-.49-1.36-.531-3.278-.129-4.55l2.344-7.127c.69-2.053 2.552-3.426 4.806-3.609l-3.977 12.141c-.571 1.867.522 4.413 3.4 4.413h5.28c1.163-.015 2.184-.726 2.544-1.806l10.394-32.049zm266.03-281.439h-3.6l10.796-33.455c.724-2.183 2.79-3.672 5.224-3.704h5.134c4.372.019 6.055 1.739 7.075 4.571.49 1.361.532 3.278.131 4.551l-2.338 7.126c-.689 2.054-2.549 3.427-4.802 3.61l3.968-12.142c.569-1.866-.524-4.412-3.401-4.412-2.012-.024-3.269-.011-5.277 0-1.162.015-2.182.725-2.541 1.805l-10.369 32.05zm13.996-9.583h7.924l-4.476 13.609-3.631-.023 3.37-10.274h-4.291l1.104-3.312z"/><path d="M661.039 266.72h3.602l-10.822 33.455c-.725 2.183-2.794 3.672-5.23 3.704h-5.136c-4.375-.019-6.058-1.739-7.076-4.571-.49-1.361-.531-3.278-.129-4.55l2.344-7.127c.69-2.053 2.552-3.427 4.806-3.61l-3.977 12.142c-.571 1.866.522 4.413 3.4 4.413h5.28c1.163-.015 2.184-.726 2.544-1.806l10.394-32.05zm16.287 29.735h-7.924l4.475-13.609 3.632.023-3.37 10.274h4.291l-1.104 3.312z"/><path d="M659.684 313.789h-3.602l10.822-33.455c.725-2.183 2.793-3.672 5.229-3.704h5.137c4.374.019 6.057 1.739 7.076 4.571.489 1.361.531 3.278.129 4.55l-2.344 7.127c-.69 2.053-2.553 3.427-4.806 3.61l3.976-12.142c.572-1.866-.521-4.412-3.399-4.412-2.013-.024-3.272-.011-5.28 0-1.163.015-2.185.725-2.544 1.805l-10.394 32.05zM488.525 509.015h-7.924l4.476-13.61 3.631.024-3.37 10.273h4.291l-1.104 3.313z"/><path d="M470.884 526.348h-3.602l10.822-33.455c.725-2.182 2.793-3.672 5.229-3.704h5.137c4.374.019 6.058 1.739 7.076 4.572.49 1.36.531 3.278.129 4.55l-2.344 7.126c-.69 2.054-2.552 3.427-4.806 3.61l3.977-12.142c.571-1.866-.522-4.412-3.4-4.412-2.013-.024-3.272-.011-5.28 0-1.163.015-2.185.725-2.544 1.806l-10.394 32.049zm-37.593-104.49h7.924l-4.475 13.61-3.632-.024 3.37-10.274h-4.29l1.103-3.312z"/><path d="M450.933 404.525h3.602l-10.822 33.454c-.725 2.183-2.793 3.672-5.229 3.705h-5.137c-4.374-.02-6.057-1.739-7.076-4.572-.489-1.36-.531-3.278-.128-4.55l2.343-7.127c.691-2.053 2.553-3.426 4.807-3.609l-3.977 12.141c-.571 1.866.521 4.413 3.399 4.413h5.281c1.163-.015 2.184-.726 2.543-1.806l10.394-32.049zM248.122 626.667h-7.924l4.475-13.61 3.632.024-3.37 10.273h4.29l-1.103 3.313z"/><path d="M230.48 644h-3.602l10.822-33.455c.725-2.182 2.793-3.672 5.229-3.704h5.137c4.374.019 6.057 1.739 7.076 4.572.489 1.36.531 3.278.129 4.55l-2.344 7.127c-.691 2.053-2.553 3.426-4.807 3.609l3.977-12.142c.571-1.866-.521-4.412-3.399-4.412-2.014-.024-3.272-.011-5.28 0-1.164.015-2.185.725-2.544 1.806L230.48 644zm344.005-304.129h-7.924l4.476-13.609 3.631.023-3.37 10.274h4.291l-1.104 3.312z"/><path d="M556.843 357.204h-3.602l10.822-33.454c.725-2.183 2.793-3.672 5.229-3.705h5.137c4.374.02 6.058 1.739 7.076 4.572.49 1.36.531 3.278.129 4.55l-2.344 7.127c-.69 2.053-2.552 3.426-4.806 3.609l3.977-12.141c.571-1.866-.522-4.413-3.4-4.413-2.013-.023-3.272-.011-5.28 0-1.163.015-2.185.726-2.544 1.806l-10.394 32.049zM155.408 479.45h-3.6l10.799-33.455c.723-2.183 2.789-3.672 5.224-3.704h5.134c4.372.019 6.055 1.739 7.075 4.571.49 1.361.532 3.278.131 4.551l-2.339 7.126c-.689 2.054-2.549 3.427-4.802 3.61l3.969-12.142c.57-1.866-.524-4.412-3.401-4.412-2.012-.024-3.27-.011-5.277 0-1.162.015-2.183.725-2.541 1.805l-10.372 32.05z"/><use xlink:href="#D"/><path d="M187.069 452.533h3.602l-10.824 33.455c-.725 2.183-2.793 3.672-5.229 3.704h-5.137c-4.375-.019-6.058-1.739-7.076-4.571-.49-1.361-.531-3.278-.129-4.55l2.344-7.127c.691-2.053 2.553-3.427 4.807-3.61l-3.977 12.142c-.572 1.866.521 4.413 3.399 4.413h5.281c1.163-.015 2.184-.726 2.543-1.806l10.396-32.05z"/><use xlink:href="#E"/><path d="M264.572 381.431h-3.602l10.826-33.455c.725-2.182 2.793-3.672 5.229-3.704h5.137c4.375.019 6.058 1.739 7.077 4.572.489 1.36.53 3.278.128 4.55l-2.344 7.126c-.691 2.054-2.553 3.427-4.808 3.61l3.979-12.142c.571-1.866-.522-4.412-3.4-4.412-2.013-.024-3.272-.011-5.28 0-1.164.015-2.185.725-2.544 1.806l-10.398 32.049z"/><use xlink:href="#F"/><path d="M296.251 354.515h3.602l-10.824 33.454c-.725 2.183-2.793 3.672-5.23 3.705h-5.136c-4.375-.02-6.058-1.739-7.077-4.572-.489-1.36-.53-3.278-.128-4.55l2.344-7.127c.691-2.053 2.553-3.426 4.807-3.609l-3.978 12.141c-.571 1.866.522 4.413 3.4 4.413h5.28c1.163-.015 2.185-.726 2.544-1.806l10.396-32.049zm91.038-78.685h7.924l-4.475 13.61-3.632-.024 3.37-10.273h-4.29l1.103-3.313z"/><path d="M404.931 258.497h3.602l-10.822 33.455c-.725 2.182-2.793 3.672-5.229 3.704h-5.137c-4.374-.019-6.057-1.739-7.076-4.572-.489-1.36-.531-3.278-.128-4.55l2.343-7.126c.691-2.054 2.553-3.427 4.807-3.61l-3.977 12.142c-.571 1.866.521 4.412 3.399 4.412h5.281c1.163-.015 2.184-.725 2.543-1.806l10.394-32.049z"/><use xlink:href="#G"/><path d="M184.474 498.046h-3.602l10.825-33.455c.725-2.183 2.794-3.672 5.23-3.704h5.137c4.375.019 6.058 1.739 7.076 4.571.489 1.361.531 3.279.128 4.551l-2.344 7.126c-.691 2.054-2.553 3.427-4.807 3.61l3.978-12.142c.571-1.866-.521-4.412-3.4-4.412-2.013-.024-3.271-.011-5.28 0-1.163.015-2.185.725-2.544 1.806l-10.397 32.049zm14.034-9.583h7.925l-4.477 13.61-3.631-.024 3.37-10.274h-4.291l1.104-3.312z"/><path d="M216.152 471.13h3.602l-10.824 33.454c-.725 2.183-2.793 3.672-5.229 3.705h-5.137c-4.375-.02-6.058-1.739-7.076-4.572-.49-1.36-.531-3.278-.129-4.55l2.344-7.127c.691-2.053 2.553-3.426 4.807-3.609l-3.977 12.141c-.572 1.866.521 4.413 3.399 4.413h5.281c1.163-.015 2.184-.726 2.543-1.806l10.396-32.049z"/><use xlink:href="#H"/><path d="M293.25 402.917h-3.602l10.825-33.455c.726-2.183 2.794-3.672 5.23-3.705h5.137c4.375.02 6.058 1.74 7.076 4.572.49 1.36.531 3.278.129 4.55l-2.345 7.127c-.69 2.053-2.553 3.427-4.807 3.61l3.978-12.142c.572-1.866-.521-4.413-3.399-4.413-2.014-.023-3.272-.01-5.281 0-1.163.015-2.184.726-2.544 1.806l-10.397 32.05z"/><use xlink:href="#I"/><path d="M324.929 376h3.602l-10.824 33.455c-.725 2.183-2.794 3.672-5.23 3.704h-5.137c-4.374-.019-6.057-1.739-7.076-4.571-.489-1.361-.53-3.278-.128-4.55l2.344-7.127c.69-2.053 2.553-3.427 4.807-3.61l-3.978 12.142c-.571 1.866.521 4.412 3.4 4.412h5.28c1.163-.015 2.184-.725 2.544-1.805L324.929 376zm94.667-86.361h-7.925l4.477-13.61 3.632.024-3.371 10.273h4.291l-1.104 3.313z"/><path d="M401.951 306.972h-3.602l10.826-33.455c.725-2.182 2.793-3.672 5.229-3.704h5.137c4.375.02 6.058 1.739 7.077 4.572.489 1.36.53 3.278.128 4.55l-2.344 7.127c-.691 2.053-2.554 3.426-4.808 3.609l3.978-12.142c.572-1.866-.521-4.412-3.399-4.412-2.013-.024-3.272-.011-5.28 0-1.164.015-2.185.725-2.544 1.806l-10.398 32.049z"/><use xlink:href="#J"/><use xlink:href="#K"/><use xlink:href="#L"/><path d="M213.151 519.531h-3.602l10.826-33.454c.725-2.183 2.793-3.672 5.23-3.705h5.137c4.374.02 6.057 1.74 7.076 4.572.489 1.36.53 3.278.128 4.55l-2.344 7.127c-.691 2.053-2.553 3.426-4.807 3.609l3.978-12.141c.571-1.866-.521-4.413-3.4-4.413-2.013-.023-3.272-.01-5.28 0-1.164.015-2.185.726-2.544 1.806l-10.398 32.049zm14.035-9.583h7.924l-4.476 13.61-3.632-.024 3.371-10.273h-4.291l1.104-3.313z"/><path d="M244.83 492.615h3.602l-10.824 33.455c-.725 2.183-2.793 3.672-5.229 3.704h-5.137c-4.375-.019-6.058-1.739-7.077-4.571-.489-1.361-.53-3.279-.128-4.551l2.344-7.126c.691-2.054 2.553-3.427 4.807-3.61l-3.978 12.142c-.571 1.866.522 4.412 3.4 4.412h5.28c1.163-.015 2.185-.725 2.544-1.806l10.396-32.049zm94.852-86.212h-7.925l4.477-13.609 3.632.023-3.371 10.274h4.291l-1.104 3.312z"/><path d="M322.037 423.737h-3.602l10.825-33.455c.726-2.183 2.794-3.672 5.23-3.704h5.137c4.375.019 6.058 1.739 7.077 4.571.489 1.361.53 3.278.128 4.55l-2.345 7.127c-.69 2.053-2.553 3.427-4.807 3.61l3.978-12.142c.572-1.866-.521-4.412-3.399-4.412-2.013-.024-3.272-.011-5.281 0-1.163.015-2.184.725-2.543 1.805l-10.398 32.05zm14.035-9.583h7.924l-4.476 13.609-3.632-.023 3.37-10.274h-4.29l1.104-3.312z"/><path d="M353.716 396.82h3.602l-10.824 33.455c-.725 2.183-2.794 3.672-5.23 3.704h-5.137c-4.374-.019-6.057-1.739-7.076-4.571-.489-1.361-.53-3.278-.128-4.55l2.344-7.127c.691-2.053 2.553-3.427 4.807-3.61l-3.978 12.142c-.571 1.866.521 4.413 3.4 4.413h5.28c1.163-.016 2.185-.726 2.544-1.806l10.396-32.05zm94.65-86.362h-7.925l4.477-13.609 3.632.023-3.371 10.274h4.291l-1.104 3.312z"/><use xlink:href="#M"/><path d="M444.755 318.209h7.925l-4.477 13.609-3.631-.023 3.37-10.274h-4.291l1.104-3.312z"/><path d="M462.399 300.875h3.602l-10.824 33.455c-.725 2.183-2.793 3.672-5.229 3.704h-5.137c-4.375-.019-6.058-1.739-7.076-4.571-.489-1.361-.531-3.278-.129-4.55l2.344-7.127c.691-2.053 2.553-3.427 4.807-3.61l-3.977 12.142c-.572 1.866.521 4.413 3.399 4.413h5.281c1.163-.016 2.184-.726 2.543-1.806l10.396-32.05z"/><use xlink:href="#N"/><path d="M241.939 540.35h-3.602l10.826-33.455c.725-2.182 2.793-3.672 5.23-3.704h5.137c4.374.02 6.057 1.739 7.076 4.572.489 1.36.53 3.278.128 4.55l-2.344 7.127c-.691 2.053-2.553 3.426-4.807 3.609l3.978-12.141c.571-1.867-.521-4.413-3.4-4.413-2.013-.024-3.272-.011-5.28 0-1.163.015-2.185.725-2.544 1.806l-10.398 32.049zm14.035-9.583h7.924l-4.476 13.61-3.632-.024 3.371-10.273h-4.291l1.104-3.313z"/><use xlink:href="#O"/><path d="M369.982 426.554h-7.925l4.477-13.61 3.632.024-3.371 10.273h4.291l-1.104 3.313z"/><path d="M352.337 443.887h-3.602l10.825-33.454c.726-2.183 2.794-3.672 5.23-3.705h5.137c4.375.02 6.058 1.739 7.076 4.572.49 1.36.531 3.278.129 4.55l-2.345 7.127c-.691 2.053-2.553 3.426-4.807 3.609l3.978-12.141c.572-1.866-.521-4.413-3.399-4.413-2.014-.023-3.272-.01-5.281 0-1.163.015-2.184.726-2.544 1.806l-10.397 32.049zm14.034-9.583h7.925l-4.476 13.61-3.632-.024 3.37-10.273h-4.29l1.103-3.313z"/><use xlink:href="#P"/><path d="M478.684 330.61h-7.925l4.477-13.609 3.632.023-3.371 10.274h4.291l-1.104 3.312z"/><path d="M461.039 347.944h-3.602l10.825-33.455c.726-2.183 2.794-3.672 5.23-3.704h5.137c4.375.019 6.058 1.739 7.076 4.571.49 1.361.531 3.278.129 4.55l-2.345 7.127c-.69 2.053-2.553 3.427-4.807 3.61l3.978-12.142c.572-1.866-.521-4.412-3.399-4.412-2.014-.024-3.272-.011-5.281 0-1.163.015-2.184.725-2.544 1.805l-10.397 32.05z"/><use xlink:href="#Q"/><path d="M492.718 321.027h3.602l-10.824 33.455c-.725 2.182-2.794 3.672-5.23 3.704h-5.137c-4.374-.019-6.057-1.739-7.076-4.572-.489-1.36-.53-3.278-.128-4.55l2.344-7.127c.69-2.053 2.553-3.426 4.807-3.609l-3.978 12.142c-.571 1.866.521 4.412 3.4 4.412h5.28c1.163-.015 2.185-.725 2.544-1.806l10.396-32.049zM209.455 430.036h-7.925l4.477-13.609 3.632.023-3.371 10.274h4.291l-1.104 3.312z"/><path d="M191.81 447.369h-3.603l10.826-33.454c.725-2.183 2.794-3.672 5.23-3.705h5.137c4.374.02 6.057 1.739 7.076 4.572.489 1.36.53 3.278.128 4.55l-2.344 7.127c-.691 2.053-2.553 3.427-4.807 3.609l3.978-12.141c.571-1.866-.521-4.413-3.4-4.413-2.013-.023-3.272-.01-5.28 0-1.163.015-2.185.726-2.544 1.806l-10.397 32.049z"/><use xlink:href="#R"/><path d="M223.488 420.453h3.602l-10.824 33.455c-.725 2.183-2.793 3.672-5.229 3.704H205.9c-4.375-.019-6.058-1.739-7.076-4.571-.49-1.361-.531-3.278-.129-4.551l2.344-7.126c.691-2.054 2.553-3.427 4.807-3.61l-3.977 12.142c-.572 1.866.521 4.412 3.399 4.412h5.28c1.164-.015 2.185-.725 2.544-1.805l10.396-32.05zm95.147-88.509h-7.924l4.476-13.61 3.632.024-3.371 10.273h4.291l-1.104 3.313z"/><path d="M300.99 349.277h-3.602l10.826-33.455c.725-2.182 2.793-3.672 5.229-3.704h5.137c4.375.02 6.058 1.739 7.077 4.572.489 1.36.53 3.278.128 4.55l-2.344 7.127c-.691 2.053-2.554 3.426-4.808 3.609l3.979-12.141c.571-1.867-.522-4.413-3.4-4.413-2.013-.024-3.272-.011-5.28 0-1.164.015-2.185.725-2.544 1.806l-10.398 32.049z"/><use xlink:href="#S"/><path d="M332.669 322.36h3.602l-10.824 33.455c-.725 2.183-2.793 3.672-5.23 3.704h-5.136c-4.375-.019-6.058-1.739-7.077-4.571-.489-1.361-.53-3.278-.128-4.55l2.344-7.127c.691-2.053 2.553-3.427 4.807-3.61l-3.978 12.142c-.571 1.866.522 4.412 3.4 4.412h5.28c1.163-.015 2.185-.725 2.544-1.805l10.396-32.05zm-94.131 126.198h-7.925l4.477-13.609 3.632.023-3.371 10.274h4.291l-1.104 3.312z"/><path d="M220.893 465.892h-3.603l10.826-33.455c.725-2.183 2.794-3.672 5.23-3.705h5.137c4.374.02 6.057 1.74 7.076 4.572.489 1.36.531 3.278.128 4.55l-2.344 7.127c-.691 2.053-2.553 3.427-4.807 3.61l3.978-12.142c.571-1.866-.521-4.413-3.4-4.413-2.013-.023-3.272-.01-5.28 0-1.163.015-2.185.726-2.544 1.806l-10.397 32.05zm14.034-9.583h7.925l-4.477 13.609-3.631-.023 3.37-10.274h-4.291l1.104-3.312z"/><path d="M252.571 438.975h3.602l-10.824 33.455c-.725 2.183-2.793 3.672-5.229 3.704h-5.137c-4.375-.019-6.058-1.739-7.076-4.571-.49-1.361-.531-3.278-.129-4.55l2.344-7.127c.691-2.054 2.553-3.427 4.807-3.61l-3.977 12.142c-.572 1.866.521 4.412 3.399 4.412h5.28c1.164-.015 2.185-.725 2.544-1.805l10.396-32.05zm-80.56 116.393h3.6l-10.796 33.455c-.724 2.182-2.79 3.672-5.224 3.704h-5.134c-4.372-.019-6.055-1.739-7.075-4.572-.49-1.36-.532-3.278-.131-4.55l2.338-7.127c.689-2.053 2.549-3.426 4.802-3.609l-3.968 12.142c-.569 1.866.524 4.412 3.401 4.412h5.277c1.162-.015 2.182-.725 2.541-1.806l10.369-32.049zm175.302-201.865h-7.925l4.477-13.61 3.632.024-3.371 10.273h4.291l-1.104 3.313z"/><path d="M329.668 370.836h-3.602l10.825-33.455c.726-2.182 2.794-3.672 5.23-3.704h5.137c4.375.02 6.058 1.739 7.076 4.572.49 1.36.531 3.278.129 4.55l-2.345 7.127c-.69 2.053-2.553 3.426-4.807 3.609l3.978-12.141c.572-1.867-.521-4.413-3.399-4.413-2.014-.024-3.272-.011-5.281 0-1.163.015-2.184.726-2.544 1.806l-10.397 32.049zm14.035-9.583h7.924l-4.476 13.61-3.632-.024 3.37-10.273h-4.29l1.104-3.313z"/><path d="M361.346 343.92h3.603l-10.824 33.455c-.725 2.182-2.794 3.672-5.23 3.704h-5.137c-4.374-.019-6.057-1.739-7.076-4.572-.489-1.36-.531-3.278-.128-4.55l2.344-7.126c.69-2.054 2.553-3.427 4.807-3.61l-3.978 12.142c-.571 1.866.521 4.412 3.4 4.412h5.28c1.163-.015 2.184-.725 2.544-1.806l10.395-32.049zm-94.132 126.198h-7.924l4.477-13.61 3.631.024-3.37 10.273h4.29l-1.104 3.313z"/><path d="M249.569 487.451h-3.602l10.826-33.455c.725-2.182 2.793-3.672 5.23-3.704h5.137c4.374.02 6.057 1.739 7.076 4.572.489 1.36.53 3.278.128 4.55l-2.344 7.127c-.691 2.053-2.553 3.426-4.807 3.609l3.978-12.141c.571-1.867-.521-4.413-3.4-4.413-2.013-.024-3.272-.011-5.28 0-1.164.015-2.185.726-2.544 1.806l-10.398 32.049zm14.035-9.583h7.924l-4.476 13.61-3.632-.024 3.371-10.273H262.5l1.104-3.313z"/><path d="M281.248 460.535h3.602l-10.824 33.455c-.725 2.182-2.793 3.672-5.229 3.704h-5.137c-4.375-.019-6.058-1.739-7.077-4.572-.489-1.36-.53-3.278-.128-4.55l2.344-7.126c.691-2.054 2.553-3.427 4.807-3.61l-3.978 12.142c-.571 1.866.522 4.412 3.4 4.412h5.28c1.163-.015 2.185-.725 2.544-1.806l10.396-32.049zm-94.463 125.309h-7.925l4.477-13.61 3.632.024-3.371 10.273h4.291l-1.104 3.313z"/><use xlink:href="#T"/><path d="M183.174 593.594h7.925l-4.477 13.61-3.631-.024 3.37-10.273h-4.291l1.104-3.313z"/><path d="M200.818 576.261h3.602l-10.824 33.455c-.725 2.182-2.793 3.672-5.229 3.704h-5.137c-4.375-.02-6.058-1.739-7.076-4.572-.49-1.36-.531-3.278-.129-4.55l2.344-7.127c.691-2.053 2.553-3.426 4.807-3.609l-3.977 12.142c-.572 1.866.521 4.412 3.399 4.412h5.281c1.163-.015 2.184-.725 2.543-1.806l10.396-32.049zm175.283-201.939h-7.925l4.477-13.61 3.632.024-3.371 10.273h4.291l-1.104 3.313z"/><path d="M358.456 391.655h-3.602l10.825-33.455c.726-2.182 2.794-3.672 5.23-3.704h5.137c4.375.019 6.058 1.739 7.077 4.572.489 1.36.53 3.278.128 4.55l-2.345 7.126c-.69 2.054-2.553 3.427-4.807 3.61l3.978-12.142c.572-1.866-.521-4.412-3.399-4.412-2.013-.024-3.272-.011-5.281 0-1.163.015-2.184.725-2.543 1.806l-10.398 32.049zm14.035-9.583h7.924l-4.476 13.61-3.632-.024 3.37-10.273h-4.29l1.104-3.313z"/><path d="M390.135 364.739h3.602l-10.824 33.455c-.725 2.182-2.794 3.672-5.23 3.704h-5.137c-4.374-.019-6.057-1.739-7.076-4.572-.489-1.36-.53-3.278-.128-4.55l2.344-7.127c.69-2.053 2.553-3.426 4.807-3.609l-3.978 12.142c-.571 1.866.521 4.412 3.4 4.412h5.28c1.163-.015 2.184-.725 2.544-1.806l10.396-32.049zm77.022-69.027h-3.6l10.799-33.455c.723-2.183 2.789-3.672 5.224-3.705h5.134c4.372.02 6.055 1.74 7.075 4.572.49 1.36.532 3.278.131 4.55l-2.339 7.127c-.689 2.053-2.549 3.427-4.802 3.61l3.969-12.142c.569-1.866-.524-4.413-3.401-4.413-2.012-.023-3.27-.01-5.277 0-1.162.015-2.183.726-2.541 1.806l-10.372 32.05zm14.016-9.583h7.925l-4.477 13.609-3.631-.023 3.37-10.274h-4.291l1.104-3.312z"/><use xlink:href="#U"/><path d="M295.985 490.937h-7.925l4.477-13.61 3.632.024-3.371 10.273h4.291l-1.104 3.313z"/><path d="M278.34 508.27h-3.602l10.825-33.455c.725-2.182 2.794-3.672 5.23-3.704h5.137c4.375.019 6.058 1.739 7.076 4.572.49 1.36.531 3.278.129 4.55l-2.345 7.126c-.691 2.054-2.553 3.427-4.807 3.61l3.978-12.142c.572-1.866-.521-4.412-3.399-4.412-2.014-.024-3.272-.011-5.281 0-1.163.015-2.184.725-2.544 1.806L278.34 508.27zm14.034-9.583h7.925l-4.476 13.61-3.632-.024 3.37-10.273h-4.29l1.103-3.313z"/><path d="M310.018 481.354h3.602l-10.823 33.455c-.726 2.182-2.794 3.672-5.23 3.704h-5.137c-4.374-.02-6.057-1.739-7.076-4.572-.489-1.36-.531-3.278-.128-4.55l2.344-7.127c.69-2.053 2.552-3.426 4.806-3.609l-3.977 12.142c-.571 1.866.521 4.412 3.399 4.412h5.281c1.163-.015 2.184-.725 2.544-1.806l10.395-32.049zm96.382-86.88h-7.925l4.477-13.61 3.632.024-3.371 10.273h4.291l-1.104 3.313z"/><path d="M388.755 411.807h-3.602l10.825-33.455c.725-2.182 2.794-3.672 5.23-3.704h5.137c4.375.019 6.058 1.739 7.076 4.572.49 1.36.531 3.278.129 4.55l-2.345 7.127c-.691 2.053-2.553 3.426-4.807 3.609l3.978-12.142c.572-1.866-.521-4.412-3.399-4.412-2.014-.024-3.272-.011-5.281 0-1.163.015-2.184.725-2.544 1.806l-10.397 32.049zm14.034-9.583h7.925l-4.476 13.61-3.632-.024 3.37-10.273h-4.29l1.103-3.313z"/><path d="M420.433 384.891h3.602l-10.823 33.455c-.726 2.182-2.794 3.672-5.23 3.704h-5.137c-4.374-.019-6.057-1.739-7.076-4.572-.489-1.36-.531-3.278-.128-4.55l2.344-7.127c.69-2.053 2.552-3.426 4.806-3.609l-3.977 12.142c-.571 1.866.521 4.412 3.4 4.412h5.28c1.163-.015 2.184-.725 2.544-1.806l10.395-32.049zm94.669-86.362h-7.925l4.477-13.609 3.632.023-3.371 10.274h4.291l-1.104 3.312z"/><path d="M497.457 315.863h-3.602l10.825-33.455c.726-2.183 2.794-3.672 5.23-3.704h5.137c4.375.019 6.058 1.739 7.077 4.571.489 1.361.53 3.278.128 4.551l-2.345 7.126c-.69 2.054-2.553 3.427-4.807 3.61l3.978-12.142c.572-1.866-.521-4.412-3.399-4.412-2.013-.024-3.272-.011-5.281 0-1.163.015-2.184.725-2.543 1.806l-10.398 32.049zm14.035-9.583h7.924l-4.476 13.609-3.632-.023 3.37-10.274h-4.29l1.104-3.312z"/><path d="M529.136 288.947h3.602l-10.824 33.454c-.725 2.183-2.794 3.672-5.23 3.705h-5.137c-4.374-.02-6.057-1.74-7.076-4.572-.489-1.36-.53-3.278-.128-4.55l2.344-7.127c.69-2.053 2.553-3.427 4.807-3.61l-3.978 12.142c-.571 1.866.521 4.413 3.4 4.413h5.28c1.163-.015 2.184-.726 2.544-1.806l10.396-32.049zM246.093 395.511h-7.924l4.476-13.61 3.632.024-3.371 10.273h4.291l-1.104 3.313z"/><path d="M228.448 412.844h-3.602l10.826-33.454c.725-2.183 2.793-3.672 5.229-3.705h5.137c4.375.02 6.058 1.739 7.077 4.572.489 1.36.53 3.278.128 4.55l-2.344 7.127c-.691 2.053-2.554 3.426-4.808 3.609l3.979-12.141c.571-1.867-.522-4.413-3.4-4.413-2.013-.024-3.272-.011-5.28 0-1.164.015-2.185.726-2.544 1.806l-10.398 32.049zm14.035-9.583h7.924l-4.476 13.61-3.632-.024 3.371-10.273h-4.291l1.104-3.313z"/><path d="M260.127 385.928h3.602l-10.824 33.455c-.725 2.182-2.793 3.672-5.23 3.704h-5.136c-4.375-.019-6.058-1.739-7.077-4.572-.489-1.36-.53-3.278-.128-4.55l2.344-7.126c.691-2.054 2.553-3.427 4.807-3.61l-3.978 12.142c-.571 1.866.522 4.412 3.4 4.412h5.28c1.163-.015 2.185-.725 2.544-1.806l10.396-32.049zm94.668-86.361h-7.924l4.477-13.609 3.631.023-3.37 10.274h4.29l-1.104 3.312z"/><path d="M337.15 316.901h-3.602l10.826-33.455c.725-2.183 2.793-3.672 5.23-3.704h5.137c4.374.019 6.057 1.739 7.076 4.571.489 1.361.53 3.278.128 4.55l-2.344 7.127c-.691 2.053-2.553 3.427-4.807 3.61l3.978-12.142c.571-1.866-.521-4.412-3.4-4.412-2.013-.024-3.272-.011-5.28 0-1.164.015-2.185.725-2.544 1.805l-10.398 32.05zm14.035-9.583h7.924l-4.476 13.609-3.632-.023 3.371-10.274h-4.291l1.104-3.312z"/><path d="M368.829 289.984h3.602l-10.824 33.455c-.725 2.183-2.793 3.672-5.229 3.705h-5.137c-4.375-.02-6.058-1.74-7.076-4.572-.49-1.36-.531-3.278-.129-4.55l2.344-7.127c.691-2.053 2.553-3.427 4.807-3.61l-3.978 12.142c-.571 1.866.522 4.413 3.4 4.413h5.28c1.164-.015 2.185-.726 2.544-1.806l10.396-32.05zM148.368 529.459h-3.6l10.799-33.455c.723-2.182 2.789-3.672 5.224-3.704h5.134c4.372.02 6.055 1.739 7.075 4.572.49 1.36.532 3.278.131 4.55l-2.339 7.127c-.689 2.053-2.549 3.426-4.802 3.609l3.969-12.141c.569-1.867-.524-4.413-3.401-4.413-2.012-.024-3.27-.011-5.277 0-1.162.015-2.183.726-2.541 1.806l-10.372 32.049zm31.625-26.916h3.6l-10.797 33.455c-.723 2.182-2.79 3.672-5.224 3.704h-5.134c-4.372-.019-6.055-1.739-7.075-4.572-.49-1.36-.532-3.278-.131-4.55l2.338-7.126c.689-2.054 2.55-3.427 4.802-3.61l-3.968 12.142c-.569 1.866.524 4.412 3.401 4.412h5.277c1.162-.015 2.183-.725 2.541-1.806l10.37-32.049zm94.797-85.472h-7.925l4.477-13.61 3.631.024-3.37 10.273h4.291l-1.104 3.313z"/><path d="M257.145 434.404h-3.603l10.826-33.455c.725-2.182 2.794-3.672 5.23-3.704h5.137c4.374.019 6.057 1.739 7.076 4.572.489 1.36.53 3.278.128 4.55l-2.344 7.126c-.691 2.054-2.553 3.427-4.807 3.61l3.978-12.142c.571-1.866-.521-4.412-3.4-4.412-2.013-.024-3.272-.011-5.28 0-1.163.015-2.185.725-2.544 1.806l-10.397 32.049zm14.034-9.583h7.925l-4.477 13.61-3.631-.024 3.37-10.273h-4.291l1.104-3.313z"/><use xlink:href="#V"/><path d="M383.473 321.053h-7.925l4.477-13.61 3.632.024-3.371 10.273h4.291l-1.104 3.313z"/><path d="M365.828 338.386h-3.602l10.826-33.455c.725-2.182 2.793-3.672 5.229-3.704h5.137c4.375.02 6.058 1.739 7.077 4.572.489 1.36.53 3.278.128 4.55l-2.344 7.127c-.691 2.053-2.554 3.426-4.808 3.609l3.978-12.141c.572-1.867-.521-4.413-3.399-4.413-2.013-.024-3.272-.011-5.281 0-1.163.015-2.184.725-2.543 1.806l-10.398 32.049zm14.035-9.583h7.924l-4.476 13.609-3.632-.023 3.371-10.274h-4.291l1.104-3.312z"/><path d="M397.507 311.469h3.602l-10.824 33.455c-.725 2.183-2.794 3.672-5.23 3.704h-5.136c-4.375-.019-6.058-1.739-7.077-4.571-.489-1.361-.53-3.278-.128-4.55l2.344-7.127c.691-2.053 2.553-3.427 4.807-3.61l-3.978 12.142c-.571 1.866.521 4.413 3.4 4.413h5.28c1.163-.016 2.185-.726 2.544-1.806l10.396-32.05zM194.673 533.686h-7.924l4.476-13.61 3.632.024-3.371 10.273h4.291l-1.104 3.313z"/><path d="M177.028 551.019h-3.602l10.826-33.455c.725-2.182 2.793-3.672 5.23-3.704h5.136c4.375.019 6.058 1.739 7.077 4.572.489 1.36.53 3.278.128 4.55l-2.344 7.126c-.691 2.054-2.553 3.427-4.807 3.61l3.978-12.142c.571-1.866-.521-4.412-3.4-4.412-2.013-.024-3.272-.011-5.28 0-1.164.015-2.185.725-2.544 1.806l-10.398 32.049zm14.035-9.583h7.924l-4.476 13.61-3.632-.024 3.371-10.273h-4.291l1.104-3.313z"/><path d="M208.707 524.103h3.602l-10.824 33.454c-.725 2.183-2.793 3.672-5.229 3.705h-5.137c-4.375-.02-6.058-1.739-7.077-4.572-.489-1.36-.53-3.278-.128-4.55l2.344-7.127c.691-2.053 2.553-3.426 4.807-3.609l-3.978 12.141c-.571 1.867.522 4.413 3.4 4.413h5.28c1.163-.015 2.185-.726 2.544-1.806l10.396-32.049zm94.852-86.214h-7.925l4.477-13.609 3.632.023-3.371 10.274h4.291l-1.104 3.312z"/><path d="M285.914 455.223h-3.602l10.825-33.455c.726-2.183 2.794-3.672 5.23-3.704h5.137c4.375.019 6.058 1.739 7.077 4.571.489 1.361.53 3.279.128 4.551l-2.345 7.126c-.69 2.054-2.553 3.427-4.807 3.61l3.978-12.142c.572-1.866-.521-4.412-3.399-4.412-2.013-.024-3.272-.011-5.281 0-1.163.015-2.184.725-2.544 1.806l-10.397 32.049zm14.035-9.583h7.924l-4.476 13.609-3.632-.023 3.37-10.274h-4.29l1.104-3.312z"/><path d="M317.593 428.307h3.602l-10.824 33.454c-.725 2.183-2.794 3.672-5.23 3.705h-5.137c-4.374-.02-6.057-1.739-7.076-4.572-.489-1.36-.53-3.278-.128-4.55l2.344-7.127c.69-2.053 2.553-3.426 4.807-3.609l-3.978 12.141c-.571 1.866.521 4.413 3.4 4.413h5.28c1.163-.015 2.184-.726 2.544-1.806l10.396-32.049zm94.65-86.362h-7.925l4.477-13.609 3.632.023-3.371 10.274h4.291l-1.104 3.312z"/><path d="M394.598 359.279h-3.602l10.825-33.455c.725-2.183 2.794-3.672 5.23-3.705h5.137c4.375.02 6.058 1.74 7.076 4.572.489 1.36.531 3.278.128 4.55l-2.344 7.127c-.691 2.053-2.553 3.427-4.807 3.61l3.978-12.142c.571-1.866-.521-4.413-3.4-4.413-2.013-.023-3.271-.01-5.28 0-1.163.015-2.185.726-2.544 1.806l-10.397 32.05zm14.034-9.583h7.925l-4.477 13.609-3.631-.023 3.37-10.274h-4.291l1.104-3.312z"/><path d="M426.276 332.362h3.602l-10.824 33.455c-.725 2.183-2.793 3.672-5.229 3.704h-5.137c-4.375-.019-6.058-1.739-7.076-4.571-.49-1.361-.531-3.278-.129-4.55l2.344-7.127c.691-2.053 2.553-3.427 4.807-3.61l-3.977 12.142c-.572 1.866.521 4.412 3.399 4.412h5.281c1.163-.015 2.184-.725 2.543-1.805l10.396-32.05zM223.443 554.504h-7.925l4.477-13.609 3.632.023-3.371 10.274h4.291l-1.104 3.312z"/><path d="M205.798 571.838h-3.602l10.825-33.455c.725-2.183 2.794-3.672 5.23-3.704h5.137c4.375.019 6.058 1.739 7.076 4.571.49 1.361.531 3.278.129 4.55l-2.345 7.127c-.691 2.054-2.553 3.427-4.807 3.61l3.978-12.142c.572-1.866-.521-4.412-3.399-4.412-2.014-.024-3.272-.011-5.281 0-1.163.015-2.184.725-2.544 1.805l-10.397 32.05zm14.034-9.583h7.925l-4.476 13.609-3.632-.023 3.37-10.274h-4.29l1.103-3.312z"/><path d="M237.476 544.921h3.602l-10.823 33.455c-.726 2.183-2.794 3.672-5.23 3.705h-5.137c-4.374-.02-6.057-1.74-7.076-4.572-.489-1.36-.531-3.278-.128-4.55l2.344-7.127c.69-2.053 2.552-3.427 4.806-3.61l-3.977 12.142c-.571 1.866.521 4.413 3.399 4.413h5.281c1.163-.015 2.184-.726 2.544-1.806l10.395-32.05zm96.383-86.88h-7.925l4.477-13.609 3.632.023-3.371 10.274h4.291l-1.104 3.312z"/><path d="M316.214 475.375h-3.602l10.825-33.455c.725-2.183 2.794-3.672 5.23-3.704h5.137c4.375.019 6.058 1.739 7.076 4.571.49 1.361.531 3.279.129 4.551l-2.345 7.126c-.691 2.054-2.553 3.427-4.807 3.61l3.978-12.142c.572-1.866-.521-4.412-3.399-4.412-2.014-.024-3.272-.011-5.281 0-1.163.015-2.184.725-2.544 1.806l-10.397 32.049zm14.034-9.583h7.925l-4.476 13.61-3.632-.024 3.37-10.273h-4.29l1.103-3.313z"/><path d="M347.892 448.459h3.602l-10.823 33.454c-.726 2.183-2.794 3.672-5.23 3.705h-5.137c-4.374-.02-6.057-1.739-7.076-4.572-.489-1.36-.531-3.278-.128-4.55l2.344-7.127c.69-2.053 2.552-3.426 4.806-3.609l-3.977 12.141c-.571 1.866.521 4.413 3.399 4.413h5.281c1.163-.015 2.184-.726 2.544-1.806l10.395-32.049zm94.668-86.362h-7.925l4.477-13.609 3.632.023-3.371 10.274h4.291l-1.104 3.312z"/><path d="M424.915 379.431h-3.602l10.825-33.455c.726-2.183 2.794-3.672 5.23-3.705h5.137c4.375.02 6.058 1.74 7.077 4.572.489 1.36.53 3.278.128 4.55l-2.345 7.127c-.69 2.053-2.553 3.427-4.807 3.61l3.978-12.142c.572-1.866-.521-4.413-3.399-4.413-2.013-.023-3.272-.01-5.281 0-1.163.015-2.184.726-2.544 1.806l-10.397 32.05zm14.035-9.583h7.924l-4.476 13.609-3.632-.023 3.37-10.274h-4.29l1.104-3.312z"/><path d="M456.594 352.514h3.602l-10.824 33.455c-.725 2.183-2.794 3.672-5.23 3.704h-5.137c-4.374-.019-6.057-1.739-7.076-4.571-.489-1.361-.53-3.278-.128-4.551l2.344-7.126c.69-2.054 2.553-3.427 4.807-3.61l-3.978 12.142c-.571 1.866.521 4.412 3.4 4.412h5.28c1.163-.015 2.184-.725 2.544-1.805l10.396-32.05zm108.683-95.129h3.599L558.08 290.84c-.723 2.182-2.789 3.672-5.224 3.704h-5.133c-4.372-.019-6.055-1.739-7.075-4.572-.49-1.36-.532-3.278-.131-4.55l2.338-7.127c.689-2.053 2.549-3.426 4.801-3.609l-3.967 12.142c-.57 1.866.524 4.412 3.4 4.412h5.277c1.163-.015 2.183-.725 2.541-1.806l10.37-32.049zm-418.255 45.291h-3.6l10.799-33.455c.724-2.183 2.79-3.672 5.224-3.705h5.134c4.373.02 6.056 1.739 7.075 4.572.49 1.36.532 3.278.131 4.55l-2.338 7.127c-.689 2.053-2.55 3.427-4.802 3.609l3.968-12.141c.57-1.866-.524-4.413-3.4-4.413-2.012-.023-3.27-.011-5.278 0-1.162.015-2.183.726-2.541 1.806l-10.372 32.05zm31.625-26.917h3.6l-10.797 33.455c-.723 2.182-2.789 3.672-5.224 3.704h-5.134c-4.372-.019-6.055-1.739-7.074-4.572-.49-1.36-.533-3.278-.132-4.55l2.339-7.126c.689-2.054 2.549-3.427 4.801-3.61l-3.967 12.142c-.57 1.866.523 4.412 3.4 4.412h5.277c1.163-.015 2.183-.725 2.541-1.806l10.37-32.049zm15.086 28.105h-7.925l4.477-13.609 3.632.023-3.371 10.274h4.291l-1.104 3.312z"/><path d="M176.088 321.198h-3.602l10.825-33.455c.726-2.183 2.794-3.672 5.23-3.705h5.137c4.375.02 6.058 1.74 7.076 4.572.49 1.36.531 3.278.129 4.55l-2.345 7.127c-.691 2.053-2.553 3.427-4.807 3.61l3.978-12.142c.572-1.866-.521-4.413-3.399-4.413-2.014-.023-3.272-.01-5.281 0-1.163.015-2.184.726-2.544 1.806l-10.397 32.05zm14.034-9.584h7.925l-4.476 13.61-3.632-.024 3.37-10.273h-4.29l1.103-3.313z"/><path d="M207.766 294.281h3.602l-10.823 33.455c-.726 2.183-2.794 3.672-5.23 3.704h-5.137c-4.374-.019-6.057-1.739-7.076-4.571-.489-1.361-.531-3.279-.128-4.551l2.344-7.126c.69-2.054 2.552-3.427 4.806-3.61l-3.977 12.142c-.571 1.866.521 4.412 3.4 4.412h5.28c1.163-.015 2.184-.725 2.544-1.806l10.395-32.049zm14.663 31.143h-7.925l4.477-13.61 3.632.024-3.371 10.273h4.291l-1.104 3.313z"/><path d="M204.784 342.757h-3.602l10.826-33.455c.725-2.182 2.793-3.672 5.229-3.704h5.137c4.375.019 6.058 1.739 7.077 4.572.489 1.36.53 3.278.128 4.55l-2.344 7.127c-.691 2.053-2.554 3.426-4.808 3.609l3.978-12.142c.572-1.866-.521-4.412-3.399-4.412-2.013-.024-3.272-.011-5.28 0-1.164.015-2.185.725-2.544 1.806l-10.398 32.049zm14.035-9.583h7.924l-4.476 13.61-3.632-.024 3.371-10.273h-4.291l1.104-3.313z"/><use xlink:href="#W"/><path d="M251.199 346.243h-7.925l4.477-13.61 3.632.024-3.371 10.273h4.291l-1.104 3.313z"/><path d="M233.554 363.576h-3.602l10.825-33.455c.725-2.182 2.794-3.672 5.23-3.704h5.137c4.375.019 6.058 1.739 7.076 4.572.489 1.36.531 3.278.128 4.55l-2.344 7.126c-.691 2.054-2.553 3.427-4.807 3.61l3.978-12.142c.571-1.866-.521-4.412-3.399-4.412-2.014-.024-3.272-.011-5.281 0-1.163.015-2.185.725-2.544 1.806l-10.397 32.049zm14.034-9.583h7.925l-4.477 13.61-3.631-.024 3.37-10.273h-4.291l1.104-3.313z"/><path d="M265.232 336.66h3.602l-10.824 33.455c-.725 2.182-2.793 3.672-5.229 3.704h-5.137c-4.375-.02-6.058-1.739-7.076-4.572-.49-1.36-.531-3.278-.129-4.55l2.344-7.127c.691-2.053 2.553-3.426 4.807-3.609l-3.977 12.141c-.572 1.867.521 4.413 3.399 4.413h5.281c1.163-.015 2.184-.725 2.543-1.806l10.396-32.049zm-52.709-47.543h-3.6l10.799-33.454c.723-2.183 2.79-3.672 5.224-3.705h5.134c4.372.02 6.056 1.739 7.075 4.572.49 1.36.532 3.278.131 4.55l-2.338 7.127c-.69 2.053-2.55 3.426-4.802 3.609l3.968-12.141c.57-1.867-.524-4.413-3.4-4.413-2.013-.024-3.27-.011-5.278 0-1.162.015-2.183.726-2.541 1.806l-10.372 32.049zm14.017-9.583h7.925l-4.476 13.61-3.632-.024 3.37-10.273h-4.29l1.103-3.313z"/><path d="M244.184 262.201h3.602l-10.823 33.455c-.726 2.182-2.794 3.672-5.23 3.704h-5.137c-4.374-.019-6.057-1.739-7.076-4.572-.489-1.36-.531-3.278-.128-4.55l2.344-7.126c.69-2.054 2.552-3.427 4.806-3.61l-3.977 12.142c-.571 1.866.521 4.412 3.4 4.412h5.28c1.163-.015 2.184-.725 2.544-1.806l10.395-32.049zm14.663 31.069h-7.925l4.477-13.61 3.632.024-3.371 10.273h4.291l-1.104 3.313z"/><path d="M241.202 310.603H237.6l10.826-33.455c.725-2.182 2.793-3.672 5.229-3.704h5.137c4.375.019 6.058 1.739 7.077 4.572.489 1.36.53 3.278.128 4.55l-2.344 7.126c-.691 2.054-2.554 3.427-4.808 3.61l3.978-12.142c.572-1.866-.521-4.412-3.399-4.412-2.013-.024-3.272-.011-5.281 0-1.163.015-2.184.725-2.543 1.806l-10.398 32.049zm14.035-9.583h7.924l-4.476 13.61-3.632-.024 3.371-10.274h-4.291l1.104-3.312z"/><path d="M272.881 283.687h3.602l-10.824 33.454c-.725 2.183-2.794 3.672-5.23 3.705h-5.136c-4.375-.02-6.058-1.739-7.077-4.572-.489-1.36-.53-3.278-.128-4.55l2.344-7.127c.691-2.053 2.553-3.426 4.807-3.609l-3.978 12.141c-.571 1.867.521 4.413 3.4 4.413h5.28c1.163-.015 2.185-.726 2.544-1.806l10.396-32.049zm-94.464 125.308h-7.924l4.477-13.609 3.631.023-3.37 10.274h4.29l-1.104 3.312z"/><path d="M160.772 426.329h-3.602l10.826-33.455c.725-2.183 2.793-3.672 5.23-3.704h5.137c4.374.019 6.057 1.739 7.076 4.571.489 1.361.53 3.279.128 4.551l-2.344 7.126c-.691 2.054-2.553 3.427-4.807 3.61l3.978-12.142c.571-1.866-.521-4.412-3.4-4.412-2.013-.024-3.272-.011-5.28 0-1.163.015-2.185.725-2.544 1.806l-10.398 32.049zm14.035-9.583h7.924l-4.476 13.609-3.631-.023 3.37-10.274h-4.291l1.104-3.312z"/><path d="M192.451 399.413h3.602l-10.824 33.454c-.725 2.183-2.793 3.672-5.229 3.705h-5.137c-4.375-.02-6.058-1.74-7.076-4.572-.49-1.36-.531-3.278-.129-4.55l2.344-7.127c.691-2.053 2.553-3.427 4.807-3.609l-3.978 12.141c-.571 1.866.522 4.413 3.4 4.413h5.28c1.164-.015 2.185-.726 2.544-1.806l10.396-32.049zm95.166-85.251h-7.925l4.477-13.609 3.632.024-3.371 10.273h4.291l-1.104 3.312z"/><path d="M269.972 331.496h-3.602l10.825-33.455c.725-2.183 2.794-3.672 5.23-3.704h5.137c4.375.019 6.058 1.739 7.076 4.571.489 1.361.531 3.278.128 4.551l-2.344 7.126c-.691 2.054-2.553 3.427-4.807 3.61l3.978-12.142c.571-1.866-.521-4.412-3.4-4.412-2.013-.024-3.271-.011-5.28 0-1.163.015-2.185.725-2.544 1.806l-10.397 32.049zm14.034-9.583h7.925l-4.477 13.609-3.631-.023 3.37-10.274h-4.291l1.104-3.312z"/><path d="M301.65 304.58h3.602l-10.824 33.454c-.725 2.183-2.793 3.672-5.229 3.705h-5.137c-4.375-.02-6.058-1.74-7.076-4.572-.49-1.36-.531-3.278-.129-4.55l2.344-7.127c.691-2.053 2.553-3.427 4.807-3.609l-3.977 12.141c-.572 1.866.521 4.413 3.399 4.413h5.281c1.163-.015 2.184-.726 2.543-1.806l10.396-32.049zm-130.026 21.189h3.6l-10.796 33.454c-.723 2.183-2.789 3.672-5.224 3.705h-5.134c-4.371-.02-6.055-1.739-7.074-4.572-.49-1.36-.533-3.278-.132-4.55l2.338-7.127c.689-2.053 2.55-3.426 4.802-3.609l-3.967 12.141c-.57 1.867.523 4.413 3.4 4.413h5.277c1.163-.015 2.183-.726 2.541-1.806l10.369-32.049zm14.681 31.068h-7.925l4.477-13.609 3.632.023-3.371 10.274h4.291l-1.104 3.312z"/><path d="M168.66 374.171h-3.602l10.826-33.455c.725-2.183 2.793-3.672 5.229-3.705h5.137c4.375.02 6.058 1.74 7.077 4.572.489 1.361.53 3.278.128 4.55l-2.344 7.127c-.691 2.053-2.554 3.427-4.808 3.61l3.979-12.142c.571-1.866-.522-4.413-3.4-4.413-2.013-.023-3.272-.01-5.28 0-1.164.015-2.185.726-2.544 1.806l-10.398 32.05zm14.035-9.583h7.924l-4.476 13.609-3.632-.023 3.371-10.274h-4.291l1.104-3.312z"/><path d="M200.339 347.254h3.602l-10.824 33.455c-.725 2.183-2.794 3.672-5.23 3.704h-5.136c-4.375-.019-6.058-1.739-7.077-4.571-.489-1.361-.53-3.278-.128-4.55l2.344-7.127c.691-2.053 2.553-3.427 4.807-3.61l-3.978 12.142c-.571 1.866.522 4.413 3.4 4.413h5.28c1.163-.016 2.185-.726 2.544-1.806l10.396-32.05zm14.736 30.476h-7.925l4.477-13.61 3.632.024-3.371 10.274h4.291l-1.104 3.312z"/><use xlink:href="#X"/><path d="M211.464 385.48h7.925l-4.477 13.61-3.631-.024 3.37-10.273h-4.291l1.104-3.313z"/><path d="M229.108 368.147h3.602l-10.824 33.455c-.725 2.183-2.793 3.672-5.229 3.704h-5.137c-4.375-.019-6.058-1.739-7.076-4.571-.49-1.361-.531-3.279-.129-4.551l2.344-7.126c.691-2.054 2.553-3.427 4.807-3.61l-3.977 12.142c-.572 1.866.521 4.412 3.399 4.412h5.281c1.163-.015 2.184-.725 2.543-1.806l10.396-32.049zm78.755-69.546h-3.6l10.799-33.455c.723-2.183 2.79-3.672 5.224-3.705h5.134c4.372.02 6.055 1.74 7.075 4.572.49 1.361.532 3.278.131 4.55l-2.339 7.127c-.689 2.053-2.549 3.427-4.802 3.61l3.969-12.142c.57-1.866-.524-4.413-3.401-4.413-2.012-.023-3.269-.01-5.277 0-1.162.015-2.183.726-2.541 1.806l-10.372 32.05zm14.017-9.583h7.925l-4.477 13.609-3.631-.023 3.37-10.274h-4.291l1.104-3.312z"/><use xlink:href="#Y"/><path d="M31.549 222.065h-3.6l10.799-33.455c.724-2.183 2.79-3.672 5.224-3.704h5.134c4.372.019 6.055 1.739 7.075 4.571.49 1.361.532 3.279.131 4.551l-2.339 7.126c-.689 2.054-2.55 3.427-4.802 3.61l3.968-12.142c.57-1.866-.524-4.412-3.4-4.412-2.012-.024-3.27-.011-5.277 0-1.163.015-2.183.725-2.541 1.806l-10.372 32.049zM263.43 18.445h7.924l-4.476 13.61-3.631-.024 3.37-10.273h-4.291l1.104-3.313z"/><path d="M281.072 1.112h3.602l-10.822 33.455c-.725 2.183-2.793 3.672-5.229 3.704h-5.137c-4.374-.019-6.057-1.739-7.076-4.572-.49-1.36-.531-3.278-.129-4.55l2.344-7.127c.69-2.053 2.552-3.427 4.806-3.61l-3.977 12.142c-.571 1.866.522 4.412 3.4 4.412h5.28c1.163-.015 2.185-.725 2.544-1.806l10.394-32.049zm-94.036 127.086h-7.925l4.477-13.609 3.632.023-3.371 10.274h4.291l-1.104 3.312z"/><path d="M169.391 145.532h-3.603l10.826-33.455c.725-2.183 2.794-3.672 5.23-3.704h5.137c4.375.019 6.058 1.739 7.076 4.571.489 1.361.531 3.278.128 4.55l-2.344 7.127c-.691 2.053-2.553 3.427-4.807 3.61l3.978-12.142c.571-1.866-.521-4.413-3.4-4.413-2.013-.023-3.271-.01-5.28 0-1.163.015-2.185.726-2.544 1.806l-10.397 32.05zm14.034-9.583h7.925l-4.477 13.609-3.631-.023 3.37-10.274h-4.291l1.104-3.312z"/><path d="M201.069 118.615h3.602l-10.824 33.455c-.725 2.183-2.793 3.672-5.229 3.704h-5.137c-4.375-.019-6.058-1.739-7.076-4.571-.49-1.361-.531-3.278-.129-4.55l2.344-7.127c.691-2.053 2.553-3.427 4.807-3.61l-3.977 12.142c-.572 1.866.521 4.413 3.399 4.413h5.281c1.163-.016 2.184-.726 2.543-1.806l10.396-32.05zm-94.132 126.198h-7.925l4.477-13.609 3.632.023-3.371 10.274h4.291l-1.104 3.312z"/><path d="M89.292 262.146H85.69l10.826-33.454c.725-2.183 2.794-3.672 5.23-3.705h5.137c4.375.02 6.058 1.74 7.076 4.572.49 1.36.531 3.278.129 4.55l-2.345 7.127c-.69 2.053-2.553 3.427-4.807 3.609l3.978-12.141c.572-1.866-.521-4.413-3.399-4.413-2.014-.023-3.272-.01-5.281 0-1.163.015-2.184.726-2.544 1.806l-10.397 32.049zm14.035-9.583h7.924l-4.476 13.61-3.632-.023 3.37-10.274h-4.29l1.104-3.313z"/><path d="M120.971 235.23h3.602l-10.824 33.455c-.725 2.183-2.794 3.672-5.23 3.704h-5.137c-4.374-.019-6.057-1.739-7.076-4.571-.489-1.361-.531-3.278-.128-4.551l2.344-7.126c.691-2.054 2.553-3.427 4.807-3.61l-3.978 12.142c-.571 1.866.521 4.412 3.4 4.412h5.28c1.163-.015 2.184-.725 2.544-1.805l10.396-32.05zm94.852-86.212h-7.925l4.477-13.609 3.632.023-3.371 10.274h4.291l-1.104 3.312z"/><path d="M198.178 166.352h-3.602l10.825-33.455c.725-2.183 2.794-3.672 5.23-3.704h5.137c4.375.019 6.058 1.739 7.076 4.571.489 1.361.531 3.278.128 4.551l-2.344 7.126c-.691 2.054-2.553 3.427-4.807 3.61l3.978-12.142c.571-1.866-.521-4.412-3.399-4.412-2.014-.024-3.272-.011-5.281 0-1.163.015-2.185.725-2.544 1.805l-10.397 32.05zm14.034-9.583h7.925l-4.477 13.609-3.631-.023 3.37-10.274h-4.291l1.104-3.312z"/><path d="M229.856 139.435h3.602l-10.824 33.455c-.725 2.183-2.793 3.672-5.229 3.705h-5.137c-4.375-.02-6.058-1.74-7.076-4.572-.49-1.361-.531-3.278-.129-4.55l2.344-7.127c.691-2.053 2.553-3.427 4.807-3.61l-3.977 12.142c-.572 1.866.521 4.413 3.399 4.413h5.281c1.163-.015 2.184-.726 2.543-1.806l10.396-32.05zm-94.131 126.197H127.8l4.477-13.609 3.632.023-3.371 10.274h4.291l-1.104 3.312z"/><path d="M118.08 282.965h-3.602l10.825-33.454c.726-2.183 2.794-3.672 5.23-3.705h5.137c4.375.02 6.058 1.739 7.077 4.572.489 1.36.53 3.278.128 4.55l-2.345 7.127c-.69 2.053-2.553 3.426-4.807 3.609l3.978-12.141c.572-1.867-.521-4.413-3.399-4.413-2.013-.023-3.272-.011-5.281 0-1.163.015-2.184.726-2.543 1.806l-10.398 32.049zm14.035-9.583h7.924l-4.476 13.61-3.632-.024 3.37-10.273h-4.29l1.104-3.313z"/><path d="M149.759 256.049h3.602l-10.824 33.455c-.725 2.182-2.794 3.672-5.23 3.704h-5.137c-4.374-.019-6.057-1.739-7.076-4.572-.489-1.36-.53-3.278-.128-4.55l2.344-7.126c.69-2.054 2.553-3.427 4.807-3.61l-3.978 12.142c-.571 1.866.521 4.412 3.4 4.412h5.28c1.163-.015 2.185-.725 2.544-1.806l10.396-32.049zm96.364-86.88h-7.925l4.477-13.609 3.631.023-3.37 10.274h4.291l-1.104 3.312z"/><path d="M228.478 186.502h-3.603l10.826-33.454c.725-2.183 2.794-3.672 5.23-3.705h5.137c4.374.02 6.057 1.74 7.076 4.572.489 1.36.53 3.278.128 4.55l-2.344 7.127c-.691 2.053-2.553 3.427-4.807 3.609l3.978-12.141c.571-1.866-.521-4.413-3.4-4.413-2.013-.023-3.272-.01-5.28 0-1.163.015-2.185.726-2.544 1.806l-10.397 32.049zm14.034-9.583h7.925l-4.477 13.61-3.631-.024 3.37-10.273h-4.291l1.104-3.313z"/><path d="M260.156 159.586h3.602l-10.824 33.455c-.725 2.182-2.793 3.672-5.229 3.704h-5.137c-4.375-.019-6.058-1.739-7.076-4.571-.49-1.361-.531-3.279-.129-4.551l2.344-7.126c.691-2.054 2.553-3.427 4.807-3.61l-3.977 12.142c-.572 1.866.521 4.412 3.399 4.412h5.28c1.164-.015 2.185-.725 2.544-1.806l10.396-32.049zm94.669-86.36H346.9l4.477-13.61 3.632.024-3.371 10.273h4.291l-1.104 3.313z"/><path d="M337.18 90.559h-3.602l10.825-33.455c.725-2.183 2.794-3.672 5.23-3.704h5.137c4.375.019 6.058 1.739 7.076 4.572.489 1.36.531 3.278.128 4.55l-2.344 7.127c-.691 2.053-2.553 3.427-4.807 3.61l3.978-12.142c.571-1.866-.521-4.412-3.4-4.412-2.013-.024-3.271-.011-5.28 0-1.163.015-2.185.725-2.544 1.806L337.18 90.559zm14.034-9.584h7.925l-4.477 13.61-3.631-.024 3.37-10.273h-4.291l1.104-3.313z"/><use xlink:href="#Z"/><path d="M194.776 74.559h-7.925l4.477-13.61 3.632.024-3.371 10.273h4.291l-1.104 3.313z"/><path d="M177.131 91.892h-3.602l10.825-33.455c.725-2.183 2.794-3.672 5.23-3.704h5.137c4.375.019 6.058 1.739 7.076 4.572.49 1.36.531 3.278.129 4.55l-2.345 7.127c-.691 2.053-2.553 3.427-4.807 3.61l3.978-12.142c.572-1.866-.521-4.412-3.399-4.412-2.014-.024-3.272-.011-5.281 0-1.163.015-2.184.725-2.544 1.806l-10.397 32.049zm14.034-9.583h7.925l-4.476 13.61-3.632-.024 3.37-10.273h-4.29l1.103-3.313z"/><path d="M208.809 64.976h3.602L201.588 98.43c-.726 2.183-2.794 3.672-5.23 3.705h-5.137c-4.374-.02-6.057-1.74-7.076-4.572-.489-1.36-.531-3.278-.128-4.55l2.344-7.127c.69-2.053 2.552-3.427 4.806-3.61l-3.977 12.142c-.571 1.866.521 4.412 3.4 4.412h5.28c1.163-.015 2.184-.725 2.544-1.806l10.395-32.049zm-94.131 126.197h-7.924l4.476-13.609 3.632.023-3.371 10.274h4.291l-1.104 3.312z"/><path d="M97.033 208.507h-3.602l10.826-33.455c.725-2.183 2.793-3.672 5.229-3.704h5.137c4.375.019 6.058 1.739 7.077 4.571.489 1.361.53 3.278.128 4.55l-2.344 7.127c-.691 2.053-2.554 3.427-4.808 3.61l3.979-12.142c.571-1.866-.522-4.413-3.4-4.413-2.013-.023-3.272-.01-5.28 0-1.164.016-2.185.726-2.544 1.806l-10.398 32.05zm14.035-9.583h7.924l-4.476 13.609-3.632-.023 3.371-10.274h-4.291l1.104-3.312z"/><path d="M128.712 181.59h3.602l-10.824 33.455c-.725 2.183-2.793 3.672-5.23 3.704h-5.136c-4.375-.019-6.058-1.739-7.077-4.571-.489-1.361-.53-3.278-.128-4.55l2.344-7.127c.691-2.053 2.553-3.427 4.807-3.61l-3.978 12.142c-.571 1.866.522 4.413 3.4 4.413h5.28c1.163-.015 2.185-.726 2.544-1.806l10.396-32.05zm-80.56 116.393h3.6l-10.796 33.455c-.723 2.182-2.789 3.672-5.224 3.704h-5.134c-4.372-.019-6.055-1.739-7.075-4.572-.49-1.36-.532-3.278-.131-4.55l2.338-7.126c.689-2.054 2.549-3.427 4.802-3.61l-3.967 12.142c-.57 1.866.524 4.412 3.4 4.412h5.277c1.162-.015 2.183-.725 2.541-1.806l10.369-32.049zM223.454 96.118h-7.925l4.477-13.61 3.632.024-3.371 10.273h4.291l-1.104 3.313z"/><path d="M205.809 113.451h-3.603l10.826-33.454c.725-2.183 2.794-3.672 5.23-3.704h5.137c4.374.019 6.057 1.739 7.076 4.572.489 1.36.531 3.278.128 4.55l-2.344 7.127c-.691 2.053-2.553 3.427-4.807 3.61l3.978-12.142c.571-1.866-.521-4.412-3.4-4.412-2.013-.024-3.272-.011-5.28 0-1.163.015-2.185.725-2.544 1.806l-10.397 32.049zm14.034-9.583h7.925l-4.477 13.61-3.631-.024 3.37-10.273h-4.291l1.104-3.313z"/><path d="M237.487 86.535h3.602l-10.824 33.455c-.725 2.182-2.793 3.672-5.229 3.704h-5.137c-4.375-.019-6.058-1.739-7.076-4.572-.49-1.36-.531-3.278-.129-4.55l2.344-7.126c.691-2.054 2.553-3.427 4.807-3.61l-3.977 12.142c-.572 1.866.521 4.412 3.399 4.412h5.28c1.164-.015 2.185-.725 2.544-1.806l10.396-32.049zm-94.132 126.198h-7.925l4.477-13.61 3.632.024-3.371 10.273h4.291l-1.104 3.313z"/><path d="M125.71 230.066h-3.602l10.825-33.454c.726-2.183 2.794-3.672 5.23-3.705h5.137c4.375.02 6.058 1.739 7.076 4.572.49 1.36.531 3.278.129 4.55l-2.345 7.127c-.69 2.053-2.553 3.426-4.807 3.609l3.978-12.141c.572-1.867-.521-4.413-3.399-4.413-2.014-.024-3.272-.011-5.281 0-1.163.015-2.184.726-2.544 1.806l-10.397 32.049zm14.035-9.583h7.924l-4.476 13.61-3.632-.024 3.37-10.273h-4.29l1.104-3.313z"/><path d="M157.388 203.15h3.603l-10.824 33.455c-.726 2.182-2.794 3.672-5.23 3.704H139.8c-4.374-.019-6.057-1.739-7.076-4.572-.489-1.36-.531-3.278-.128-4.55l2.344-7.126c.69-2.054 2.553-3.427 4.806-3.61l-3.977 12.142c-.571 1.866.521 4.412 3.4 4.412h5.28c1.163-.015 2.184-.725 2.544-1.806l10.395-32.049zM62.925 328.459H55l4.477-13.61 3.632.024-3.371 10.273h4.291l-1.104 3.313z"/><path d="M45.28 345.792h-3.602l10.826-33.455c.725-2.182 2.793-3.672 5.23-3.704h5.137c4.375.019 6.058 1.739 7.076 4.572.489 1.36.53 3.278.128 4.55l-2.344 7.127c-.691 2.053-2.553 3.426-4.807 3.609l3.978-12.142c.571-1.866-.521-4.412-3.4-4.412-2.013-.024-3.272-.011-5.28 0-1.163.015-2.185.725-2.544 1.806L45.28 345.792zm14.035-9.583h7.925l-4.476 13.61-3.632-.024 3.37-10.273h-4.291l1.104-3.313z"/><path d="M76.959 318.876h3.602l-10.824 33.455c-.725 2.182-2.793 3.672-5.229 3.704h-5.137c-4.375-.019-6.058-1.739-7.076-4.572-.489-1.36-.531-3.278-.129-4.55l2.344-7.127c.691-2.053 2.553-3.426 4.807-3.609l-3.977 12.142c-.571 1.866.521 4.412 3.4 4.412h5.28c1.163-.015 2.185-.725 2.544-1.806l10.396-32.049zm175.283-201.939h-7.925l4.477-13.61 3.632.024-3.371 10.273h4.291l-1.104 3.313z"/><use xlink:href="#a"/><path d="M248.631 124.687h7.925l-4.477 13.61-3.631-.024 3.37-10.273h-4.291l1.104-3.313z"/><use xlink:href="#b"/><path d="M343.298 38.327h-3.6l10.798-33.455c.724-2.183 2.79-3.672 5.225-3.704h5.134c4.372.019 6.055 1.739 7.075 4.572.489 1.36.532 3.278.131 4.55l-2.339 7.127c-.689 2.053-2.549 3.427-4.802 3.61l3.968-12.142c.57-1.866-.523-4.412-3.4-4.412-2.012-.024-3.27-.011-5.277 0-1.163.015-2.183.725-2.542 1.806l-10.371 32.049zm14.016-9.583h7.924l-4.476 13.61-3.632-.024 3.371-10.273h-4.291l1.104-3.312z"/><path d="M374.958 11.41h3.602l-10.824 33.455c-.725 2.183-2.793 3.672-5.23 3.704h-5.136c-4.375-.019-6.058-1.739-7.077-4.572-.489-1.36-.53-3.278-.128-4.55l2.344-7.127c.691-2.053 2.553-3.427 4.807-3.61l-3.978 12.142c-.571 1.866.522 4.413 3.4 4.413h5.28c1.163-.015 2.185-.725 2.544-1.806l10.396-32.049zM172.125 233.552h-7.924l4.477-13.61 3.631.024-3.37 10.273h4.29l-1.104 3.313z"/><path d="M154.48 250.885h-3.602l10.826-33.455c.725-2.182 2.793-3.672 5.23-3.704h5.137c4.374.019 6.057 1.739 7.076 4.572.489 1.36.53 3.278.128 4.55l-2.344 7.127c-.691 2.053-2.553 3.426-4.807 3.609l3.978-12.142c.571-1.866-.521-4.412-3.4-4.412-2.013-.024-3.272-.011-5.28 0-1.163.015-2.185.725-2.544 1.806l-10.398 32.049zm14.035-9.583h7.924l-4.476 13.61-3.631-.024 3.37-10.273h-4.291l1.104-3.313z"/><path d="M186.159 223.969h3.602l-10.824 33.455c-.725 2.182-2.793 3.672-5.229 3.704h-5.137c-4.375-.019-6.058-1.739-7.076-4.572-.49-1.36-.531-3.278-.129-4.55l2.344-7.127c.691-2.053 2.553-3.426 4.807-3.609l-3.977 12.142c-.572 1.866.521 4.412 3.399 4.412h5.28c1.164-.015 2.185-.725 2.544-1.806l10.396-32.049zm96.381-86.88h-7.924l4.477-13.61 3.631.024-3.37 10.273h4.29l-1.104 3.313z"/><path d="M264.896 154.422h-3.603l10.826-33.455c.725-2.182 2.793-3.672 5.23-3.704h5.137c4.374.02 6.057 1.739 7.076 4.572.489 1.36.53 3.278.128 4.55l-2.344 7.127c-.691 2.053-2.553 3.426-4.807 3.609l3.978-12.142c.571-1.866-.521-4.412-3.4-4.412-2.013-.024-3.272-.011-5.28 0-1.163.015-2.185.725-2.544 1.806l-10.397 32.049zm14.034-9.583h7.925l-4.477 13.61-3.631-.024 3.37-10.273h-4.291l1.104-3.313z"/><path d="M296.574 127.506h3.602l-10.824 33.455c-.725 2.182-2.793 3.672-5.229 3.704h-5.137c-4.375-.019-6.058-1.739-7.076-4.572-.49-1.36-.531-3.278-.129-4.55l2.344-7.126c.691-2.054 2.553-3.427 4.807-3.61l-3.977 12.142c-.572 1.866.521 4.412 3.399 4.412h5.28c1.164-.015 2.185-.725 2.544-1.806l10.396-32.049zm94.669-86.361h-7.925l4.477-13.61 3.632.024-3.371 10.273h4.291l-1.104 3.313z"/><path d="M373.598 58.478h-3.602l10.825-33.455c.725-2.183 2.794-3.672 5.23-3.704h5.137c4.375.019 6.058 1.739 7.076 4.572.489 1.36.531 3.278.128 4.55l-2.344 7.127c-.691 2.053-2.553 3.427-4.807 3.61l3.978-12.142c.571-1.866-.521-4.413-3.4-4.413-2.013-.024-3.271-.011-5.28 0-1.163.015-2.185.725-2.544 1.806l-10.397 32.049zm14.034-9.583h7.925l-4.477 13.61-3.631-.024 3.37-10.273h-4.291l1.104-3.313z"/><path d="M405.276 31.562h3.602l-10.824 33.455c-.725 2.183-2.793 3.672-5.229 3.704h-5.137c-4.375-.019-6.058-1.739-7.076-4.572-.49-1.36-.531-3.278-.129-4.55l2.344-7.127c.691-2.053 2.553-3.427 4.807-3.61l-3.977 12.142c-.572 1.866.521 4.412 3.399 4.412h5.281c1.163-.015 2.184-.725 2.543-1.806l10.396-32.049zM122.234 138.126h-7.925l4.477-13.609 3.632.023-3.371 10.274h4.291l-1.104 3.312z"/><path d="M104.589 155.459h-3.602l10.825-33.454c.725-2.183 2.794-3.672 5.23-3.705h5.137c4.375.02 6.058 1.74 7.076 4.572.49 1.36.531 3.278.129 4.55l-2.345 7.127c-.691 2.053-2.553 3.427-4.807 3.609l3.978-12.141c.572-1.866-.521-4.413-3.399-4.413-2.014-.023-3.272-.01-5.281 0-1.163.015-2.184.726-2.544 1.806l-10.397 32.049zm14.034-9.583h7.925l-4.476 13.61-3.632-.024 3.37-10.273h-4.29l1.103-3.313z"/><path d="M136.267 128.543h3.602l-10.823 33.455c-.726 2.183-2.794 3.672-5.23 3.704h-5.137c-4.374-.019-6.057-1.739-7.076-4.571-.489-1.361-.531-3.278-.128-4.551l2.344-7.126c.69-2.054 2.552-3.427 4.806-3.61l-3.977 12.142c-.571 1.866.521 4.412 3.399 4.412h5.281c1.163-.015 2.184-.725 2.544-1.805l10.395-32.05zM24.509 272.074h-3.6l10.799-33.454c.723-2.183 2.79-3.672 5.224-3.705h5.134c4.372.02 6.055 1.739 7.075 4.572.49 1.36.532 3.278.131 4.55l-2.339 7.127c-.689 2.053-2.55 3.426-4.802 3.609l3.968-12.141c.57-1.867-.524-4.413-3.4-4.413-2.012-.024-3.27-.011-5.277 0-1.163.015-2.183.726-2.541 1.806l-10.372 32.049zm31.625-26.916h3.6l-10.797 33.455c-.723 2.182-2.789 3.672-5.224 3.704h-5.134c-4.372-.019-6.055-1.739-7.075-4.572-.49-1.36-.532-3.278-.131-4.55l2.338-7.126c.689-2.054 2.549-3.427 4.802-3.61l-3.968 12.142c-.57 1.866.524 4.412 3.4 4.412h5.277c1.163-.015 2.183-.725 2.541-1.806l10.37-32.049zm91.186-77.722h7.924l-4.476 13.61-3.632-.024 3.371-10.273h-4.291l1.104-3.313z"/><path d="M164.964 150.103h3.602l-10.824 33.455c-.725 2.182-2.794 3.672-5.23 3.704h-5.136c-4.375-.019-6.058-1.739-7.077-4.572-.489-1.36-.53-3.278-.128-4.55l2.344-7.127c.691-2.053 2.553-3.426 4.807-3.609l-3.978 12.142c-.571 1.866.521 4.412 3.4 4.412h5.28c1.163-.015 2.185-.725 2.544-1.806l10.396-32.049zm94.65-86.435h-7.925l4.477-13.61 3.632.024-3.371 10.273h4.291l-1.104 3.313z"/><path d="M241.969 81.001h-3.602l10.825-33.455c.725-2.183 2.794-3.672 5.23-3.704h5.137c4.375.019 6.058 1.739 7.076 4.572.49 1.36.531 3.278.129 4.55l-2.345 7.127c-.691 2.053-2.553 3.427-4.807 3.61l3.978-12.142c.571-1.866-.521-4.412-3.399-4.412-2.014-.024-3.272-.011-5.281 0-1.163.015-2.185.725-2.544 1.806l-10.397 32.049zm14.034-9.583h7.925l-4.477 13.61-3.631-.024 3.37-10.273h-4.291l1.104-3.313z"/><path d="M273.647 54.085h3.602L266.425 87.54c-.725 2.183-2.793 3.672-5.229 3.704h-5.137c-4.374-.019-6.057-1.739-7.076-4.572-.489-1.36-.531-3.278-.129-4.55l2.344-7.127c.691-2.053 2.553-3.427 4.807-3.61l-3.977 12.142c-.571 1.866.521 4.413 3.399 4.413h5.281c1.163-.015 2.184-.725 2.543-1.806l10.396-32.049zM70.814 276.301h-7.925l4.477-13.61 3.632.024-3.371 10.273h4.291l-1.104 3.313z"/><path d="M53.169 293.634h-3.602l10.825-33.455c.725-2.182 2.794-3.672 5.23-3.704h5.137c4.375.019 6.058 1.739 7.076 4.572.489 1.36.53 3.278.128 4.55l-2.344 7.126c-.691 2.054-2.553 3.427-4.807 3.61l3.978-12.142c.571-1.866-.521-4.412-3.4-4.412-2.013-.024-3.272-.011-5.28 0-1.163.015-2.185.725-2.544 1.806l-10.397 32.049zm14.035-9.583h7.924l-4.476 13.61-3.632-.024 3.37-10.273H66.1l1.104-3.313z"/><path d="M84.848 266.718h3.602l-10.824 33.455c-.725 2.182-2.793 3.672-5.23 3.704h-5.137c-4.375-.02-6.058-1.739-7.076-4.572-.489-1.36-.531-3.278-.129-4.55l2.344-7.127c.691-2.053 2.553-3.426 4.807-3.609l-3.977 12.141c-.571 1.867.521 4.413 3.4 4.413h5.28c1.163-.015 2.185-.725 2.544-1.806l10.396-32.049zm94.852-86.213h-7.925l4.477-13.61 3.632.024-3.371 10.273h4.291l-1.104 3.313z"/><path d="M162.055 197.838h-3.602l10.825-33.455c.725-2.182 2.794-3.672 5.23-3.704h5.137c4.375.019 6.058 1.739 7.076 4.572.489 1.36.531 3.278.128 4.55l-2.344 7.126c-.691 2.054-2.553 3.427-4.807 3.61l3.978-12.142c.571-1.866-.521-4.412-3.4-4.412-2.013-.024-3.271-.011-5.28 0-1.163.015-2.185.725-2.544 1.806l-10.397 32.049zm14.034-9.583h7.925l-4.477 13.61-3.631-.024 3.37-10.274h-4.291l1.104-3.312z"/><path d="M193.733 170.922h3.602l-10.824 33.454c-.725 2.183-2.793 3.672-5.229 3.705h-5.137c-4.375-.02-6.058-1.739-7.076-4.572-.49-1.36-.531-3.278-.129-4.55l2.344-7.127c.691-2.053 2.553-3.426 4.807-3.609l-3.977 12.141c-.572 1.867.521 4.413 3.399 4.413h5.281c1.163-.015 2.184-.726 2.543-1.806l10.396-32.049zm94.65-86.362h-7.924l4.476-13.61 3.632.024-3.371 10.273h4.291l-1.104 3.313z"/><path d="M270.738 101.894h-3.602l10.826-33.455c.725-2.183 2.793-3.672 5.229-3.704h5.137c4.375.019 6.058 1.739 7.077 4.572.489 1.36.53 3.278.128 4.55l-2.344 7.127c-.691 2.053-2.553 3.427-4.807 3.61l3.978-12.142c.571-1.866-.522-4.413-3.4-4.413-2.013-.024-3.272-.011-5.28 0-1.164.015-2.185.725-2.544 1.806l-10.398 32.05zm14.035-9.583h7.924l-4.476 13.609-3.632-.023 3.371-10.274h-4.291l1.104-3.313z"/><path d="M302.417 74.977h3.602l-10.824 33.455c-.725 2.183-2.793 3.672-5.23 3.704h-5.136c-4.375-.019-6.058-1.739-7.077-4.571-.489-1.361-.53-3.278-.128-4.55l2.344-7.127c.691-2.053 2.553-3.427 4.807-3.61l-3.978 12.142c-.571 1.866.522 4.413 3.4 4.413h5.28c1.163-.016 2.185-.726 2.544-1.806l10.396-32.05zM99.584 297.12h-7.925l4.477-13.61 3.632.024-3.371 10.273h4.29l-1.103 3.313z"/><path d="M81.939 314.453h-3.602l10.826-33.455c.725-2.183 2.794-3.672 5.23-3.704h5.137c4.374.019 6.057 1.739 7.076 4.571.489 1.361.53 3.279.128 4.551l-2.344 7.126c-.691 2.054-2.553 3.427-4.807 3.61l3.978-12.142c.571-1.866-.521-4.412-3.4-4.412-2.013-.024-3.272-.011-5.28 0-1.163.015-2.185.725-2.544 1.806L81.94 314.453zm14.034-9.583h7.924l-4.476 13.609-3.632-.023 3.37-10.274h-4.291l1.104-3.312z"/><path d="M113.617 287.537h3.602l-10.824 33.454c-.725 2.183-2.793 3.672-5.229 3.705h-5.137c-4.375-.02-6.058-1.739-7.076-4.572-.489-1.36-.531-3.278-.129-4.55l2.344-7.127c.691-2.053 2.553-3.426 4.807-3.609l-3.977 12.141c-.571 1.866.521 4.413 3.4 4.413h5.28c1.164-.015 2.185-.726 2.544-1.806l10.396-32.049zm96.382-86.88h-7.924l4.477-13.61 3.631.024-3.37 10.273h4.291l-1.105 3.313z"/><path d="M192.355 217.99h-3.603l10.826-33.455c.725-2.182 2.793-3.672 5.23-3.704h5.137c4.374.019 6.057 1.739 7.076 4.572.489 1.36.53 3.278.128 4.55l-2.344 7.126c-.691 2.054-2.553 3.427-4.807 3.61l3.978-12.142c.571-1.866-.521-4.412-3.4-4.412-2.013-.024-3.272-.011-5.28 0-1.163.015-2.185.725-2.544 1.806l-10.397 32.049zm14.034-9.583h7.924l-4.476 13.61-3.631-.024 3.37-10.273h-4.291l1.104-3.313z"/><path d="M224.033 191.074h3.602l-10.824 33.454c-.725 2.183-2.793 3.672-5.229 3.705h-5.137c-4.375-.02-6.058-1.739-7.076-4.572-.49-1.36-.531-3.278-.129-4.55l2.344-7.127c.691-2.053 2.553-3.426 4.807-3.609l-3.977 12.141c-.572 1.867.521 4.413 3.399 4.413h5.28c1.164-.015 2.185-.726 2.544-1.806l10.396-32.049zm94.668-86.362h-7.925l4.477-13.609 3.632.024-3.371 10.274h4.291l-1.104 3.312z"/><path d="M301.056 122.046h-3.602l10.825-33.455c.725-2.183 2.794-3.672 5.23-3.704h5.137c4.375.019 6.058 1.739 7.076 4.572.489 1.36.531 3.278.128 4.55l-2.344 7.127c-.691 2.053-2.553 3.427-4.807 3.61l3.978-12.142c.571-1.866-.521-4.413-3.4-4.413-2.013-.024-3.271-.011-5.28 0-1.163.015-2.185.725-2.544 1.806l-10.397 32.05zm14.034-9.583h7.925l-4.477 13.609-3.631-.023 3.37-10.274h-4.291l1.104-3.312z"/><path d="M332.734 95.129h3.602l-10.824 33.455c-.725 2.183-2.793 3.672-5.229 3.704h-5.137c-4.375-.019-6.058-1.739-7.076-4.571-.49-1.361-.531-3.278-.129-4.55l2.344-7.127c.691-2.053 2.553-3.427 4.807-3.61l-3.977 12.142c-.572 1.866.521 4.413 3.399 4.413h5.281c1.163-.016 2.184-.726 2.543-1.806l10.396-32.05zM441.417 0h3.6l-10.796 33.455c-.723 2.183-2.789 3.672-5.224 3.704h-5.134c-4.371-.019-6.055-1.739-7.074-4.572-.49-1.36-.533-3.278-.132-4.55l2.338-7.127c.689-2.053 2.55-3.427 4.802-3.61l-3.967 12.142c-.57 1.866.523 4.412 3.4 4.412h5.277c1.162-.015 2.183-.725 2.541-1.806L441.417 0zM8.773 377.244h-3.6l10.799-33.455c.723-2.182 2.79-3.672 5.224-3.704h5.134c4.372.019 6.055 1.739 7.075 4.572.49 1.36.532 3.278.131 4.55l-2.339 7.126c-.689 2.054-2.55 3.427-4.802 3.61l3.968-12.142c.57-1.866-.524-4.412-3.4-4.412-2.012-.024-3.27-.011-5.277 0-1.162.015-2.183.725-2.541 1.806L8.773 377.244zm31.625-26.917h3.6l-10.797 33.455c-.723 2.183-2.789 3.672-5.224 3.705h-5.134c-4.372-.02-6.055-1.739-7.075-4.572-.49-1.36-.532-3.278-.131-4.55l2.338-7.127c.689-2.053 2.549-3.427 4.802-3.609L18.81 379.77c-.57 1.866.524 4.413 3.4 4.413h5.277c1.162-.015 2.183-.726 2.541-1.806l10.37-32.05zm15.086 28.106h-7.925l4.477-13.61 3.632.024-3.371 10.273h4.291l-1.104 3.313z"/><use xlink:href="#c"/><path d="M51.873 386.183h7.925l-4.476 13.61-3.632-.024 3.37-10.273H50.77l1.104-3.313z"/><path d="M69.517 368.85h3.602l-10.824 33.455c-.725 2.182-2.793 3.672-5.229 3.704h-5.137c-4.375-.02-6.058-1.739-7.076-4.572-.489-1.36-.531-3.278-.129-4.55l2.344-7.127c.691-2.053 2.553-3.426 4.807-3.609l-3.977 12.141c-.571 1.867.521 4.413 3.4 4.413h5.28c1.163-.015 2.185-.725 2.544-1.806l10.396-32.049zm14.663 31.142h-7.925l4.477-13.609 3.632.023-3.371 10.274h4.291l-1.104 3.312z"/><path d="M66.535 417.326h-3.602l10.825-33.455c.725-2.183 2.794-3.672 5.23-3.704h5.137c4.375.019 6.058 1.739 7.076 4.571.489 1.361.531 3.278.128 4.55l-2.344 7.127c-.691 2.053-2.553 3.427-4.807 3.61l3.978-12.142c.571-1.866-.521-4.413-3.399-4.413-2.013-.023-3.272-.01-5.281 0-1.163.016-2.185.726-2.544 1.806l-10.397 32.05zm14.035-9.583h7.925l-4.476 13.609-3.632-.023 3.37-10.274h-4.291l1.104-3.312z"/><path d="M98.214 390.409h3.602l-10.824 33.455c-.725 2.183-2.793 3.672-5.23 3.705h-5.137c-4.375-.02-6.058-1.74-7.076-4.572-.489-1.361-.531-3.278-.129-4.55l2.344-7.127c.691-2.053 2.553-3.427 4.807-3.61l-3.978 12.142c-.571 1.866.521 4.413 3.4 4.413h5.28c1.163-.015 2.185-.726 2.544-1.806l10.396-32.05zm14.736 30.402h-7.925l4.477-13.609 3.632.023-3.371 10.274h4.291l-1.104 3.312z"/><path d="M95.305 438.144h-3.602l10.825-33.454c.725-2.183 2.794-3.672 5.23-3.705h5.137c4.375.02 6.058 1.74 7.076 4.572.489 1.36.531 3.278.128 4.55l-2.344 7.127c-.691 2.053-2.553 3.427-4.807 3.609l3.978-12.141c.571-1.866-.521-4.413-3.4-4.413-2.013-.023-3.271-.01-5.28 0-1.163.015-2.185.726-2.544 1.806l-10.397 32.049zm14.034-9.582h7.925l-4.477 13.609-3.631-.024 3.37-10.273h-4.291l1.104-3.312z"/><path d="M126.983 411.228h3.602l-10.824 33.455c-.725 2.183-2.793 3.672-5.229 3.704h-5.137c-4.375-.019-6.058-1.739-7.076-4.571-.49-1.361-.531-3.278-.129-4.551l2.344-7.126c.691-2.054 2.553-3.427 4.807-3.61l-3.977 12.142c-.572 1.866.521 4.412 3.399 4.412h5.281c1.163-.015 2.184-.725 2.543-1.805l10.396-32.05zm-52.709-47.542h-3.6l10.799-33.455c.723-2.183 2.79-3.672 5.224-3.704h5.134c4.372.019 6.055 1.739 7.075 4.571.49 1.361.532 3.279.131 4.551l-2.339 7.126c-.689 2.054-2.549 3.427-4.802 3.61l3.968-12.142c.57-1.866-.523-4.412-3.4-4.412-2.012-.024-3.27-.011-5.277 0-1.162.015-2.183.725-2.541 1.806l-10.372 32.049zm14.017-9.583h7.924l-4.476 13.609-3.632-.023 3.37-10.274h-4.291l1.104-3.312z"/><path d="M105.935 336.769h3.602l-10.824 33.455c-.725 2.183-2.793 3.672-5.23 3.705h-5.137c-4.375-.02-6.058-1.74-7.076-4.572-.489-1.36-.531-3.278-.129-4.55l2.344-7.127c.691-2.053 2.553-3.427 4.807-3.61l-3.978 12.142c-.571 1.866.521 4.413 3.4 4.413h5.28c1.163-.015 2.185-.726 2.544-1.806l10.395-32.05zm14.663 31.069h-7.925l4.477-13.609 3.632.023-3.371 10.274h4.291l-1.104 3.312z"/><path d="M102.953 385.171h-3.602l10.826-33.454c.725-2.183 2.793-3.672 5.229-3.705h5.137c4.375.02 6.058 1.739 7.077 4.572.489 1.36.53 3.278.128 4.55l-2.344 7.127c-.691 2.053-2.554 3.426-4.808 3.609l3.978-12.141c.572-1.866-.521-4.413-3.399-4.413-2.013-.023-3.272-.011-5.281 0-1.163.015-2.184.726-2.543 1.806l-10.398 32.049zm14.035-9.583h7.924l-4.476 13.61-3.632-.024 3.37-10.273h-4.29l1.104-3.313z"/><path d="M134.632 358.255h3.602L127.41 391.71c-.725 2.183-2.794 3.672-5.23 3.704h-5.137c-4.374-.019-6.057-1.739-7.076-4.571-.489-1.361-.53-3.279-.128-4.551l2.344-7.126c.691-2.054 2.553-3.427 4.807-3.61l-3.978 12.142c-.571 1.866.521 4.412 3.4 4.412h5.28c1.163-.015 2.185-.725 2.544-1.806l10.396-32.049zM40.168 483.564h-7.925l4.477-13.61 3.632.024-3.371 10.273h4.291l-1.104 3.313z"/><path d="M22.523 500.897h-3.602l10.826-33.455c.725-2.182 2.794-3.672 5.23-3.704h5.137c4.375.02 6.058 1.739 7.076 4.572.489 1.36.53 3.278.128 4.55l-2.344 7.127c-.691 2.053-2.553 3.426-4.807 3.609l3.978-12.141c.571-1.867-.521-4.413-3.4-4.413-2.013-.024-3.272-.011-5.28 0-1.163.015-2.185.725-2.544 1.806l-10.398 32.049zm14.035-9.583h7.925l-4.476 13.61-3.632-.024 3.37-10.273h-4.291l1.104-3.313z"/><path d="M54.202 473.981h3.602L46.98 507.436c-.725 2.182-2.793 3.672-5.23 3.704h-5.137c-4.375-.019-6.058-1.739-7.076-4.572-.489-1.36-.53-3.278-.128-4.55l2.344-7.126c.691-2.054 2.553-3.427 4.807-3.61l-3.977 12.142c-.571 1.866.521 4.412 3.4 4.412h5.28c1.163-.015 2.185-.725 2.544-1.806l10.396-32.049zm95.166-85.25h-7.925l4.477-13.61 3.632.024-3.371 10.273h4.291l-1.104 3.313z"/><path d="M131.723 406.064h-3.602l10.825-33.455c.725-2.182 2.794-3.672 5.23-3.704h5.137c4.375.019 6.058 1.739 7.076 4.572.489 1.36.531 3.278.128 4.55l-2.344 7.127c-.691 2.053-2.553 3.426-4.807 3.609l3.978-12.142c.571-1.866-.521-4.412-3.4-4.412-2.013-.024-3.271-.011-5.28 0-1.163.015-2.185.725-2.544 1.806l-10.397 32.049zm14.034-9.583h7.925l-4.477 13.61-3.631-.024 3.37-10.273h-4.291l1.104-3.313z"/><path d="M163.401 379.148h3.602l-10.824 33.455c-.725 2.182-2.793 3.672-5.229 3.704h-5.137c-4.375-.019-6.058-1.739-7.076-4.572-.49-1.36-.531-3.278-.129-4.55l2.344-7.126c.691-2.054 2.553-3.427 4.807-3.61l-3.977 12.142c-.572 1.866.521 4.412 3.399 4.412h5.281c1.163-.015 2.184-.725 2.543-1.806l10.396-32.049zM33.375 400.337h3.6l-10.796 33.455c-.723 2.183-2.789 3.672-5.224 3.704h-5.134c-4.372-.019-6.055-1.739-7.075-4.571-.49-1.361-.532-3.279-.131-4.551l2.338-7.126c.689-2.054 2.549-3.427 4.802-3.61l-3.967 12.142c-.57 1.866.524 4.412 3.4 4.412h5.277c1.163-.015 2.183-.725 2.541-1.806l10.369-32.049zm14.681 31.069h-7.925l4.477-13.61 3.632.024-3.371 10.273h4.291l-1.104 3.313z"/><path d="M30.411 448.739h-3.602l10.826-33.455c.725-2.182 2.794-3.672 5.23-3.704h5.137c4.375.019 6.058 1.739 7.076 4.572.489 1.36.531 3.278.128 4.55l-2.344 7.126c-.691 2.054-2.553 3.427-4.807 3.61l3.978-12.142c.571-1.866-.521-4.412-3.4-4.412-2.013-.024-3.272-.011-5.28 0-1.163.015-2.185.725-2.544 1.806l-10.397 32.049zm14.035-9.583h7.924l-4.476 13.61-3.632-.024 3.37-10.273h-4.291l1.104-3.313z"/><path d="M62.09 421.823h3.602l-10.824 33.455c-.725 2.182-2.793 3.672-5.23 3.704h-5.137c-4.375-.019-6.058-1.739-7.076-4.572-.489-1.36-.531-3.278-.129-4.55l2.344-7.127c.691-2.053 2.553-3.426 4.807-3.609l-3.977 12.142c-.571 1.866.521 4.412 3.4 4.412h5.28c1.163-.015 2.185-.725 2.544-1.806l10.396-32.049zm14.736 30.476h-7.925l4.477-13.61 3.632.024-3.371 10.273h4.291l-1.104 3.313z"/><path d="M59.181 469.632h-3.602l10.825-33.455c.725-2.182 2.794-3.672 5.23-3.704h5.137c4.375.019 6.058 1.739 7.076 4.572.489 1.36.531 3.278.128 4.55l-2.344 7.126c-.691 2.054-2.553 3.427-4.807 3.61l3.978-12.142c.571-1.866-.521-4.412-3.4-4.412-2.013-.024-3.272-.011-5.281 0-1.163.015-2.185.725-2.544 1.806L59.18 469.632zm14.034-9.583h7.925l-4.476 13.61-3.632-.024 3.37-10.274h-4.291l1.104-3.312z"/><path d="M90.859 442.716h3.602L83.637 476.17c-.725 2.183-2.793 3.672-5.23 3.705H73.27c-4.375-.02-6.058-1.739-7.076-4.572-.489-1.36-.531-3.278-.129-4.55l2.344-7.127c.691-2.053 2.553-3.426 4.807-3.609l-3.978 12.141c-.571 1.867.521 4.413 3.4 4.413h5.28c1.163-.015 2.185-.726 2.544-1.806l10.396-32.049zM330.231 143.37h-3.6l10.799-33.455c.723-2.182 2.79-3.672 5.224-3.704h5.134c4.372.019 6.056 1.739 7.075 4.572.49 1.36.532 3.278.131 4.55l-2.338 7.127c-.689 2.053-2.55 3.426-4.802 3.609l3.968-12.142c.57-1.866-.524-4.412-3.4-4.412-2.013-.024-3.27-.011-5.278 0-1.162.015-2.183.725-2.541 1.806l-10.372 32.049zm31.625-26.916h3.6l-10.797 33.455c-.723 2.182-2.789 3.672-5.224 3.704h-5.134c-4.372-.019-6.055-1.739-7.074-4.572-.49-1.36-.533-3.278-.132-4.55l2.339-7.127c.689-2.053 2.549-3.426 4.801-3.609l-3.967 12.142c-.57 1.866.523 4.412 3.4 4.412h5.277c1.163-.015 2.183-.725 2.541-1.806l10.37-32.049zm15.086 28.105h-7.925l4.477-13.61 3.632.024-3.371 10.273h4.291l-1.104 3.313z"/><path d="M359.297 161.892h-3.602l10.825-33.455c.725-2.182 2.794-3.672 5.23-3.704h5.137c4.375.02 6.058 1.739 7.076 4.572.49 1.36.531 3.278.129 4.55l-2.345 7.127c-.691 2.053-2.553 3.426-4.807 3.609l3.978-12.141c.572-1.867-.521-4.413-3.399-4.413-2.014-.024-3.272-.011-5.281 0-1.163.015-2.184.725-2.544 1.806l-10.397 32.049zm14.034-9.583h7.925l-4.476 13.61-3.632-.024 3.37-10.273h-4.29l1.103-3.313z"/><path d="M390.975 134.976h3.602l-10.823 33.455c-.726 2.182-2.794 3.672-5.23 3.704h-5.137c-4.374-.019-6.057-1.739-7.076-4.572-.489-1.36-.531-3.278-.128-4.55l2.344-7.126c.69-2.054 2.553-3.427 4.806-3.61l-3.977 12.142c-.571 1.866.521 4.412 3.4 4.412h5.28c1.163-.015 2.184-.725 2.544-1.806l10.395-32.049zm14.663 31.143h-7.925l4.477-13.61 3.632.024-3.371 10.273h4.291l-1.104 3.313z"/><path d="M387.993 183.452h-3.602l10.826-33.455c.725-2.182 2.793-3.672 5.229-3.704h5.137c4.375.019 6.058 1.739 7.077 4.572.489 1.36.53 3.278.128 4.55l-2.344 7.126c-.691 2.054-2.554 3.427-4.808 3.61l3.978-12.142c.572-1.866-.521-4.412-3.399-4.412-2.013-.024-3.272-.011-5.28 0-1.164.015-2.185.725-2.544 1.806l-10.398 32.049zm14.035-9.583h7.924l-4.476 13.61-3.632-.024 3.371-10.274h-4.291l1.104-3.312z"/><path d="M419.672 156.536h3.602L412.45 189.99c-.725 2.183-2.794 3.672-5.23 3.705h-5.136c-4.375-.02-6.058-1.739-7.077-4.572-.489-1.36-.53-3.278-.128-4.55l2.344-7.127c.691-2.053 2.553-3.426 4.807-3.609l-3.978 12.141c-.571 1.867.522 4.413 3.4 4.413h5.28c1.163-.015 2.185-.726 2.544-1.806l10.396-32.049zm14.736 30.401h-7.925l4.477-13.609 3.632.023-3.371 10.274h4.291l-1.104 3.312z"/><path d="M416.763 204.271h-3.602l10.825-33.455c.725-2.183 2.794-3.672 5.23-3.704h5.137c4.375.019 6.058 1.739 7.076 4.571.489 1.361.531 3.278.128 4.55l-2.344 7.127c-.691 2.053-2.553 3.427-4.807 3.61l3.978-12.142c.571-1.866-.521-4.412-3.4-4.412-2.013-.024-3.271-.011-5.28 0-1.163.015-2.185.725-2.544 1.805l-10.397 32.05zm14.034-9.583h7.925l-4.477 13.609-3.631-.023 3.37-10.274h-4.291l1.104-3.312z"/><path d="M448.441 177.354h3.602l-10.824 33.455c-.725 2.183-2.793 3.672-5.229 3.704h-5.137c-4.375-.019-6.058-1.739-7.076-4.571-.49-1.361-.531-3.278-.129-4.55l2.344-7.127c.691-2.053 2.553-3.427 4.807-3.61l-3.977 12.142c-.572 1.866.521 4.413 3.399 4.413h5.281c1.163-.016 2.184-.726 2.543-1.806l10.396-32.05zm-52.709-47.542h-3.6l10.799-33.455c.723-2.183 2.79-3.672 5.224-3.704h5.134c4.372.019 6.056 1.739 7.075 4.572.49 1.36.532 3.278.131 4.55l-2.338 7.126c-.69 2.054-2.55 3.427-4.802 3.61l3.968-12.142c.57-1.866-.524-4.412-3.4-4.412-2.013-.024-3.27-.011-5.278 0-1.162.015-2.183.725-2.541 1.806l-10.372 32.049zm14.017-9.583h7.925l-4.476 13.61-3.632-.024 3.37-10.273h-4.29l1.103-3.313z"/><path d="M427.393 102.896h3.602l-10.823 33.455c-.726 2.182-2.794 3.672-5.23 3.704h-5.137c-4.374-.02-6.057-1.739-7.076-4.572-.489-1.36-.531-3.278-.128-4.55l2.344-7.127c.69-2.053 2.552-3.426 4.806-3.609l-3.977 12.141c-.571 1.867.521 4.413 3.399 4.413h5.281c1.163-.015 2.184-.726 2.544-1.806l10.395-32.049zM361.626 249.69h-7.924l4.477-13.609 3.631.023-3.37 10.274h4.29l-1.104 3.312z"/><path d="M343.981 267.024h-3.602l10.826-33.455c.725-2.183 2.793-3.672 5.23-3.705h5.137c4.374.02 6.057 1.74 7.076 4.572.489 1.36.53 3.278.128 4.55l-2.344 7.127c-.691 2.053-2.553 3.427-4.807 3.609l3.978-12.141c.571-1.866-.521-4.413-3.4-4.413-2.013-.023-3.272-.01-5.28 0-1.163.015-2.185.726-2.544 1.806l-10.398 32.05zm14.035-9.584h7.924l-4.476 13.61-3.631-.024 3.37-10.273h-4.291l1.104-3.313z"/><path d="M375.66 240.107h3.602l-10.824 33.455c-.725 2.183-2.793 3.672-5.229 3.704h-5.137c-4.375-.019-6.058-1.739-7.076-4.571-.49-1.361-.531-3.278-.129-4.551l2.344-7.126c.691-2.054 2.553-3.427 4.807-3.61l-3.978 12.142c-.571 1.866.522 4.412 3.4 4.412h5.28c1.164-.015 2.185-.725 2.544-1.805l10.396-32.05zm95.166-85.25h-7.925l4.477-13.609 3.632.023-3.371 10.274h4.291l-1.104 3.312z"/><path d="M453.181 172.19h-3.602l10.825-33.454c.725-2.183 2.794-3.672 5.23-3.705h5.137c4.375.02 6.058 1.74 7.076 4.572.489 1.36.531 3.278.128 4.55l-2.344 7.127c-.691 2.053-2.553 3.427-4.807 3.609l3.978-12.141c.571-1.866-.521-4.413-3.4-4.413-2.013-.023-3.271-.01-5.28 0-1.163.015-2.185.726-2.544 1.806l-10.397 32.049zm55.293-62.211h7.924l-4.476 13.61-3.631-.024 3.37-10.274h-4.291l1.104-3.312z"/><path d="M526.118 92.646h3.602L518.896 126.1c-.725 2.183-2.793 3.672-5.229 3.705h-5.137c-4.375-.02-6.058-1.739-7.076-4.572-.49-1.36-.531-3.278-.129-4.55l2.344-7.127c.691-2.053 2.553-3.426 4.807-3.609l-3.978 12.141c-.571 1.867.522 4.413 3.4 4.413h5.28c1.164-.015 2.185-.726 2.544-1.806l10.396-32.049zm-171.285 73.817h3.6l-10.796 33.455c-.723 2.183-2.789 3.672-5.224 3.705h-5.134c-4.371-.02-6.055-1.74-7.074-4.572-.49-1.361-.533-3.278-.132-4.55l2.338-7.127c.689-2.053 2.55-3.427 4.802-3.61l-3.967 12.142c-.57 1.866.523 4.413 3.4 4.413h5.277c1.163-.015 2.183-.726 2.541-1.806l10.369-32.05zm14.681 31.069h-7.925l4.477-13.61 3.632.024-3.371 10.273h4.291l-1.104 3.313z"/><path d="M351.869 214.865h-3.602l10.826-33.455c.725-2.182 2.793-3.672 5.229-3.704h5.137c4.375.02 6.058 1.739 7.077 4.572.489 1.36.53 3.278.128 4.55l-2.344 7.127c-.691 2.053-2.554 3.426-4.808 3.609l3.978-12.141c.572-1.867-.521-4.413-3.399-4.413-2.013-.024-3.272-.011-5.281 0-1.163.015-2.184.726-2.543 1.806l-10.398 32.049zm14.035-9.583h7.924l-4.476 13.61-3.632-.024 3.37-10.273h-4.29l1.104-3.313z"/><path d="M383.548 187.949h3.602l-10.824 33.455c-.725 2.182-2.794 3.672-5.23 3.704h-5.136c-4.375-.019-6.058-1.739-7.077-4.572-.489-1.36-.53-3.278-.128-4.55l2.344-7.126c.691-2.054 2.553-3.427 4.807-3.61l-3.978 12.142c-.571 1.866.522 4.412 3.4 4.412h5.28c1.163-.015 2.185-.725 2.544-1.806l10.396-32.049zm14.736 30.476h-7.925l4.477-13.61 3.632.024-3.371 10.273h4.291l-1.104 3.313z"/><path d="M380.639 235.758h-3.602l10.825-33.455c.725-2.182 2.794-3.672 5.23-3.704h5.137c4.375.019 6.058 1.739 7.076 4.572.489 1.36.531 3.278.128 4.55l-2.344 7.127c-.691 2.053-2.553 3.426-4.807 3.609l3.978-12.142c.571-1.866-.521-4.412-3.4-4.412-2.013-.024-3.271-.011-5.28 0-1.163.015-2.185.725-2.544 1.806l-10.397 32.049zm14.034-9.583h7.925l-4.477 13.61-3.631-.024 3.37-10.273h-4.291l1.104-3.313z"/><path d="M412.317 208.842h3.602l-10.824 33.455c-.725 2.182-2.793 3.672-5.229 3.704h-5.137c-4.375-.019-6.058-1.739-7.076-4.572-.49-1.36-.531-3.278-.129-4.55l2.344-7.127c.691-2.053 2.553-3.426 4.807-3.609l-3.977 12.142c-.572 1.866.521 4.412 3.399 4.412h5.281c1.163-.015 2.184-.725 2.543-1.806l10.396-32.049z"/></g><defs><clipPath id="A"><path fill="#fff" d="M0 0h689v644H0z"/></clipPath><path id="B" d="M425.827 475.794h7.925l-4.476 13.61-3.632-.024 3.37-10.273h-4.29l1.103-3.313z"/><path id="C" d="M345.73 592.409h7.924l-4.476 13.61-3.631-.024 3.37-10.273h-4.291l1.104-3.313z"/><path id="D" d="M169.425 469.867h7.925l-4.477 13.609-3.631-.023 3.37-10.274h-4.291l1.104-3.312z"/><path id="E" d="M282.217 364.098h-7.924l4.476-13.61 3.632.024-3.371 10.273h4.291l-1.104 3.313z"/><path id="F" d="M278.607 371.848h7.924l-4.476 13.61-3.632-.024 3.371-10.274h-4.291l1.104-3.312z"/><path id="G" d="M202.119 480.713h-7.925l4.477-13.61 3.632.024-3.371 10.273h4.291l-1.104 3.313z"/><path id="H" d="M310.895 385.583h-7.925l4.477-13.609 3.632.023-3.371 10.274h4.291l-1.104 3.312z"/><path id="I" d="M307.285 393.334h7.924l-4.476 13.609-3.632-.023 3.37-10.274h-4.29l1.104-3.312z"/><path id="J" d="M415.986 297.389h7.924l-4.476 13.61-3.632-.024 3.371-10.273h-4.291l1.104-3.313z"/><path id="K" d="M433.63 280.056h3.602l-10.824 33.455c-.725 2.182-2.793 3.672-5.23 3.704h-5.136c-4.375-.019-6.058-1.739-7.077-4.572-.489-1.36-.53-3.278-.128-4.55l2.344-7.126c.691-2.054 2.553-3.427 4.807-3.61l-3.978 12.142c-.571 1.866.522 4.412 3.4 4.412h5.28c1.163-.015 2.185-.725 2.544-1.806l10.396-32.049z"/><path id="L" d="M230.796 502.198h-7.924l4.477-13.609 3.631.023-3.37 10.274h4.29l-1.104 3.312z"/><path id="M" d="M430.721 327.792h-3.602l10.825-33.455c.725-2.183 2.794-3.672 5.23-3.704h5.137c4.375.019 6.058 1.739 7.076 4.571.489 1.361.531 3.278.128 4.55l-2.344 7.127c-.691 2.053-2.553 3.427-4.807 3.61l3.978-12.142c.571-1.866-.521-4.412-3.4-4.412-2.013-.024-3.271-.011-5.28 0-1.163.015-2.185.725-2.544 1.805l-10.397 32.05z"/><path id="N" d="M259.584 523.017h-7.924l4.477-13.61 3.631.024-3.37 10.273h4.29l-1.104 3.313z"/><path id="O" d="M273.618 513.434h3.602l-10.824 33.455c-.725 2.182-2.793 3.672-5.229 3.704h-5.137c-4.375-.019-6.058-1.739-7.076-4.572-.49-1.36-.531-3.278-.129-4.55l2.344-7.126c.691-2.054 2.553-3.427 4.807-3.61l-3.977 12.142c-.572 1.866.521 4.412 3.399 4.412h5.28c1.164-.015 2.185-.725 2.544-1.806l10.396-32.049z"/><path id="P" d="M384.015 416.971h3.602l-10.823 33.455c-.726 2.182-2.794 3.672-5.23 3.704h-5.137c-4.374-.019-6.057-1.739-7.076-4.572-.489-1.36-.531-3.278-.128-4.55l2.344-7.126c.69-2.054 2.552-3.427 4.806-3.61l-3.977 12.142c-.571 1.866.521 4.412 3.4 4.412h5.28c1.163-.015 2.184-.725 2.544-1.806l10.395-32.049z"/><path id="Q" d="M475.074 338.36h7.924l-4.476 13.61-3.632-.024 3.37-10.273h-4.29l1.104-3.313z"/><path id="R" d="M205.844 437.786h7.925l-4.477 13.61-3.631-.024 3.37-10.273h-4.291l1.104-3.313z"/><path id="S" d="M315.025 339.694h7.924l-4.476 13.609-3.632-.023 3.371-10.274h-4.291l1.104-3.312z"/><path id="T" d="M169.14 603.177h-3.602l10.825-33.455c.725-2.182 2.794-3.672 5.23-3.704h5.137c4.375.019 6.058 1.739 7.076 4.572.489 1.36.531 3.278.128 4.55l-2.344 7.126c-.691 2.054-2.553 3.427-4.807 3.61l3.978-12.142c.571-1.866-.521-4.412-3.4-4.412-2.013-.024-3.271-.011-5.28 0-1.163.015-2.185.725-2.544 1.806l-10.397 32.049z"/><path id="U" d="M498.817 268.795h3.602l-10.824 33.455c-.725 2.183-2.793 3.672-5.229 3.704h-5.137c-4.375-.019-6.058-1.739-7.076-4.571-.49-1.361-.531-3.278-.129-4.551l2.344-7.126c.691-2.054 2.553-3.427 4.807-3.61l-3.977 12.142c-.572 1.866.521 4.412 3.399 4.412h5.281c1.163-.015 2.184-.725 2.543-1.805l10.396-32.05z"/><path id="V" d="M288.823 407.488h3.602l-10.824 33.455c-.725 2.182-2.793 3.672-5.229 3.704h-5.137c-4.375-.019-6.058-1.739-7.076-4.572-.49-1.36-.531-3.278-.129-4.55l2.344-7.127c.691-2.053 2.553-3.426 4.807-3.609l-3.977 12.142c-.572 1.866.521 4.412 3.399 4.412h5.28c1.164-.015 2.185-.725 2.544-1.806l10.396-32.049z"/><path id="W" d="M236.463 315.841h3.602l-10.824 33.455c-.725 2.182-2.794 3.672-5.23 3.704h-5.136c-4.375-.019-6.058-1.739-7.077-4.572-.489-1.36-.53-3.278-.128-4.55l2.344-7.126c.691-2.054 2.553-3.427 4.807-3.61l-3.978 12.142c-.571 1.866.522 4.412 3.4 4.412h5.28c1.163-.015 2.185-.725 2.544-1.806l10.396-32.049z"/><path id="X" d="M197.43 395.063h-3.602l10.825-33.454c.725-2.183 2.794-3.672 5.23-3.705h5.137c4.375.02 6.058 1.74 7.076 4.572.489 1.36.531 3.278.128 4.55l-2.344 7.127c-.691 2.053-2.553 3.427-4.807 3.609l3.978-12.141c.571-1.866-.521-4.413-3.4-4.413-2.013-.023-3.271-.01-5.28 0-1.163.015-2.185.726-2.544 1.806l-10.397 32.049z"/><path id="Y" d="M339.524 271.684h3.602l-10.824 33.455c-.725 2.183-2.793 3.672-5.229 3.704h-5.137c-4.375-.019-6.058-1.739-7.076-4.571-.49-1.361-.531-3.278-.129-4.55l2.344-7.127c.691-2.053 2.553-3.427 4.807-3.61l-3.977 12.142c-.572 1.866.521 4.413 3.399 4.413h5.281c1.163-.016 2.184-.726 2.543-1.806l10.396-32.05z"/><path id="Z" d="M368.858 63.642h3.602l-10.824 33.455c-.725 2.183-2.793 3.672-5.229 3.704h-5.137c-4.375-.019-6.058-1.739-7.076-4.572-.49-1.36-.531-3.278-.129-4.55l2.344-7.127c.691-2.053 2.553-3.427 4.807-3.61l-3.977 12.142c-.572 1.866.521 4.412 3.399 4.412h5.281c1.163-.015 2.184-.725 2.543-1.806l10.396-32.049z"/><path id="a" d="M234.597 134.27h-3.602l10.825-33.455c.725-2.182 2.794-3.672 5.23-3.704h5.137c4.375.019 6.058 1.739 7.076 4.572.489 1.36.531 3.278.128 4.55l-2.344 7.127c-.691 2.053-2.553 3.426-4.807 3.609l3.978-12.142c.571-1.866-.521-4.412-3.4-4.412-2.013-.024-3.271-.011-5.28 0-1.163.015-2.185.725-2.544 1.806l-10.397 32.049z"/><path id="b" d="M266.275 107.354h3.602l-10.824 33.455c-.725 2.182-2.793 3.672-5.229 3.704h-5.137c-4.375-.019-6.058-1.739-7.076-4.572-.49-1.36-.531-3.278-.129-4.55l2.344-7.126c.691-2.054 2.553-3.427 4.807-3.61l-3.977 12.142c-.572 1.866.521 4.412 3.399 4.412h5.281c1.163-.015 2.184-.725 2.543-1.806l10.396-32.049z"/><path id="c" d="M37.839 395.766h-3.602l10.826-33.455c.725-2.182 2.794-3.672 5.23-3.704h5.137c4.375.019 6.058 1.739 7.076 4.572.489 1.36.531 3.278.128 4.55l-2.344 7.126c-.691 2.054-2.553 3.427-4.807 3.61l3.978-12.142c.571-1.866-.521-4.412-3.4-4.412-2.013-.024-3.272-.011-5.28 0-1.163.015-2.185.725-2.544 1.806l-10.397 32.049z"/></defs></svg>