<svg xmlns="http://www.w3.org/2000/svg" width="375" height="436" fill="none" xmlns:v="https://vecta.io/nano"><g fill-rule="evenodd"><path d="M-55.205 687.461H-102L105.75 48.049A69.54 69.54 0 0 1 171.877 0h83.657c25.228 0 46.283 10.656 59.374 28.663 13.082 18.008 16.793 41.05 9.165 64.557l-21.459 66.027c-8.918 27.452-33.624 46.367-62.189 47.906 0 0-.148-.048 39.875-123.234 3.534-10.871 2.244-21.511-3.308-29.143-5.541-7.631-14.892-12.147-27.265-12.147h-71.786a32.55 32.55 0 0 0-30.948 22.485L-55.205 687.461z" fill="#f0145a"/><path d="M240.416 207.155h-94.318l41.558-126.394 47.017.278-27.301 83.355 46.877.028-13.833 42.733z" fill="url(#A)"/></g><defs><linearGradient id="A" x1="146.091" y1="182.946" x2="251.01" y2="237.784" gradientUnits="userSpaceOnUse"><stop stop-color="#f0145a"/><stop offset="1" stop-color="#693264"/></linearGradient></defs></svg>