<svg xmlns="http://www.w3.org/2000/svg" width="22" height="25" fill="none" xmlns:v="https://vecta.io/nano"><g fill-rule="evenodd"><path d="M15.998 14.29h-6.11l2.692-8.166 3.046.018-1.769 5.385 3.037.002-.896 2.761z" fill="url(#A)"/><path d="M3.524 24.891H.5L7.295 4.036C7.896 2.19 9.622.939 11.568.939h5.407c1.63 0 2.991.687 3.837 1.847s1.085 2.646.592 4.161l-1.387 4.256c-.576 1.769-2.173 2.989-4.019 3.088 0 0-.01-.003 2.577-7.943.228-.701.145-1.386-.214-1.878s-.962-.783-1.762-.783H11.96c-.911 0-1.718.585-2 1.449L3.524 24.891z" fill="#f0145a"/></g><defs><linearGradient id="A" x1="9.887" y1="12.726" x2="16.676" y2="16.284" gradientUnits="userSpaceOnUse"><stop stop-color="#f0145a"/><stop offset="1" stop-color="#693264"/></linearGradient></defs></svg>