<svg xmlns="http://www.w3.org/2000/svg" width="33" height="33" fill="none" xmlns:v="https://vecta.io/nano"><g fill-rule="evenodd"><path d="M5.453 31.771H.5L8.98 5.674A7.36 7.36 0 0 1 15.978.589h8.853c2.67 0 4.898 1.128 6.284 3.033s1.777 4.344.97 6.832l-2.271 6.988a7.33 7.33 0 0 1-6.581 5.07s-.016-.005 4.22-13.042c.374-1.15.238-2.277-.35-3.084s-1.576-1.285-2.886-1.285H16.62c-1.492 0-2.814.961-3.275 2.38L5.453 31.771z" fill="#f0145a"/><path d="M23.232 22.512h-9.982l4.398-13.376 4.976.029-2.889 8.821 4.961.003-1.464 4.522z" fill="url(#A)"/></g><defs><linearGradient id="A" x1="13.25" y1="19.95" x2="24.353" y2="25.753" gradientUnits="userSpaceOnUse"><stop stop-color="#f0145a"/><stop offset="1" stop-color="#693264"/></linearGradient></defs></svg>