<svg xmlns="http://www.w3.org/2000/svg" xmlns:xlink="http://www.w3.org/1999/xlink" width="44" height="44" fill="none" xmlns:v="https://vecta.io/nano"><use xlink:href="#C" fill="#000"/><use xlink:href="#C" fill="url(#A)"/><use xlink:href="#D" fill="#000"/><use xlink:href="#D" fill="url(#B)"/><defs><linearGradient id="A" x1="22" y1="0" x2="22" y2="44" gradientUnits="userSpaceOnUse"><stop stop-color="#ef8080"/><stop offset="1" stop-color="#f0145a"/></linearGradient><linearGradient id="B" x1="22" y1="14.609" x2="22" y2="29.391" gradientUnits="userSpaceOnUse"><stop stop-color="#ef8080"/><stop offset="1" stop-color="#f0145a"/></linearGradient><path id="C" d="M41.612 25.938c-.473-.196-.97-.295-1.479-.295-1.122 0-2.158.479-2.878 1.281l-.839-.348-2.393-.991c.34-1.137.523-2.34.523-3.585a12.51 12.51 0 0 0-.523-3.585l2.393-.991.839-.347c.719.802 1.756 1.281 2.878 1.281.509 0 1.006-.099 1.479-.295 1.97-.816 2.909-3.083 2.093-5.053-.601-1.451-2.004-2.388-3.574-2.388-.509 0-1.006.099-1.479.295-1.553.643-2.464 2.187-2.381 3.777l-.844.349-2.392.991c-1.162-2.14-2.928-3.907-5.069-5.069l.991-2.392.349-.843.203.006c1.57 0 2.973-.937 3.574-2.388.816-1.97-.123-4.237-2.093-5.053A3.85 3.85 0 0 0 29.512 0c-1.57 0-2.973.937-3.574 2.388-.643 1.553-.196 3.289.987 4.355l-.348.841-.991 2.393a12.51 12.51 0 0 0-7.171 0l-.991-2.393-.348-.841c1.182-1.066 1.63-2.802.987-4.355C17.462.937 16.059 0 14.489 0c-.509 0-1.006.099-1.479.295-1.97.816-2.909 3.083-2.093 5.053.601 1.451 2.004 2.388 3.574 2.388l.204-.006.349.843.991 2.392c-2.141 1.162-3.907 2.928-5.069 5.069l-2.392-.991-.844-.349c.082-1.59-.829-3.134-2.381-3.777-.473-.196-.97-.295-1.479-.295-1.57 0-2.973.937-3.574 2.388-.816 1.97.123 4.237 2.093 5.053.473.196.97.295 1.479.295 1.122 0 2.158-.479 2.878-1.281l.839.347 2.393.991c-.34 1.137-.523 2.34-.523 3.585a12.51 12.51 0 0 0 .523 3.585l-2.393.991-.839.348c-.72-.802-1.756-1.281-2.878-1.281-.509 0-1.006.099-1.479.295-1.97.816-2.909 3.083-2.093 5.053.601 1.45 2.004 2.388 3.574 2.388.509 0 1.006-.099 1.479-.295 1.553-.643 2.464-2.187 2.381-3.777l.844-.349 2.392-.991c1.162 2.141 2.928 3.907 5.069 5.069l-.991 2.392-.349.843-.203-.006c-1.57 0-2.973.937-3.574 2.388-.816 1.97.123 4.237 2.093 5.053.473.196.97.295 1.479.295 1.57 0 2.973-.937 3.574-2.388.643-1.553.196-3.289-.987-4.355l.348-.841.991-2.393c1.137.34 2.34.523 3.585.523s2.449-.183 3.585-.523l.991 2.393.348.841c-1.182 1.066-1.63 2.802-.987 4.355.601 1.451 2.004 2.388 3.574 2.388.509 0 1.006-.099 1.479-.295 1.97-.816 2.909-3.083 2.093-5.053-.601-1.45-2.004-2.388-3.574-2.388l-.203.006-.349-.843-.991-2.392c2.14-1.162 3.907-2.928 5.069-5.069l2.392.991.844.349c-.082 1.59.829 3.134 2.381 3.777.473.196.97.295 1.479.295 1.57 0 2.973-.937 3.574-2.388.816-1.97-.123-4.237-2.093-5.053zM22 31.969c-5.497 0-9.969-4.472-9.969-9.969s4.472-9.969 9.969-9.969 9.969 4.472 9.969 9.969-4.472 9.969-9.969 9.969z"/><path id="D" d="M22 14.609A7.4 7.4 0 0 0 14.609 22 7.4 7.4 0 0 0 22 29.391 7.4 7.4 0 0 0 29.391 22 7.4 7.4 0 0 0 22 14.609zm1.289 10.227h-2.578v-5.672h2.578v5.672z"/></defs></svg>