<svg xmlns="http://www.w3.org/2000/svg" xmlns:xlink="http://www.w3.org/1999/xlink" width="44" height="44" fill="none" xmlns:v="https://vecta.io/nano"><path d="M29 40H15v4h14v-4z" fill="#000"/><path d="M29 40H15v4h14v-4z" fill="url(#A)"/><path d="M9.721.096L0 10.002l2.558 2.607 9.721-9.905L9.721.096z" fill="#000"/><path d="M9.721.096L0 10.002l2.558 2.607 9.721-9.905L9.721.096z" fill="url(#B)"/><path d="M34.279 0l-2.558 2.607 9.721 9.906L44 9.905 34.279 0z" fill="#000"/><path d="M34.279 0l-2.558 2.607 9.721 9.906L44 9.905 34.279 0z" fill="url(#C)"/><use xlink:href="#F" fill="#000"/><use xlink:href="#F" fill="url(#D)"/><use xlink:href="#G" fill="#000"/><use xlink:href="#G" fill="url(#E)"/><defs><linearGradient id="A" x1="22" y1="40" x2="22" y2="44" xlink:href="#H"><stop stop-color="#ef8080"/><stop offset="1" stop-color="#f0145a"/></linearGradient><linearGradient id="B" x1="4.861" y1="5.049" x2="7.467" y2="7.607" xlink:href="#H"><stop stop-color="#ef8080"/><stop offset="1" stop-color="#f0145a"/></linearGradient><linearGradient id="C" x1="33" y1="1.303" x2="42.904" y2="11.023" xlink:href="#H"><stop stop-color="#ef8080"/><stop offset="1" stop-color="#f0145a"/></linearGradient><linearGradient id="D" x1="22" y1="4" x2="22" y2="26" xlink:href="#H"><stop stop-color="#ef8080"/><stop offset="1" stop-color="#f0145a"/></linearGradient><linearGradient id="E" x1="22.5" y1="11" x2="22.5" y2="39" xlink:href="#H"><stop stop-color="#ef8080"/><stop offset="1" stop-color="#f0145a"/></linearGradient><path id="F" d="M31.029 5.309l-1.957-.086a3.54 3.54 0 0 0-1.68.16 3.66 3.66 0 0 0-1.435.924l-4.004 4.168-4.185-4.357c-.363-.37-.817-.629-1.311-.75s-1.011-.1-1.495.062a2.53 2.53 0 0 1-1.404.037c-.463-.12-.885-.37-1.222-.721l-.621-.647L4 12.131l1.257 1.309-.083 2.038a3.98 3.98 0 0 0 .154 1.75c.181.563.485 1.074.888 1.494L13.207 26c.093-.956.533-1.838 1.23-2.468l-2.178-2.268.514-.535 2.275 2.369c.322-.191.671-.329 1.035-.409v-2.797l-1.253-1.304.514-.535.738.769v-4.051a2.8 2.8 0 0 1 .642-1.825c.421-.506 1.006-.833 1.644-.92a2.45 2.45 0 0 1 .721.034l-.894-.931.514-.535 1.306 1.36c.231-.467.589-.853 1.029-1.109s.943-.374 1.446-.336c.607.074 1.171.367 1.592.827a2.78 2.78 0 0 1 .717 1.696 2.5 2.5 0 0 1 1.328-.251c.648.081 1.244.409 1.673.922a2.81 2.81 0 0 1 .647 1.852v2.593c.662.144 1.272.477 1.762.962s.841 1.102 1.013 1.783l2.028-2.112.514.536-2.411 2.511c0 .01.003.02.003.03v2.514c.654-.071 1.264-.373 1.73-.855l4.975-5.18c.355-.378.604-.85.721-1.365a3.02 3.02 0 0 0-.06-1.556 2.85 2.85 0 0 1-.035-1.462 2.77 2.77 0 0 1 .692-1.273l.621-.647L32.286 4l-1.257 1.309z"/><path id="G" d="M20.629 14.142a1.87 1.87 0 0 0-.676-1.236c-.377-.306-.858-.45-1.339-.401-.466.065-.893.302-1.199.664s-.469.826-.459 1.302v8.493a2.94 2.94 0 0 0-2.091.876A3.01 3.01 0 0 0 14 25.956v7.234c.006.522.153 1.033.424 1.477a2.85 2.85 0 0 0 1.117 1.043c.428.231.785.575 1.034.995a2.73 2.73 0 0 1 .381 1.392V39h11.087v-1.827l1.466-1.363a3.77 3.77 0 0 0 1.097-1.333A3.82 3.82 0 0 0 31 32.788V21.469a3.01 3.01 0 0 0-.866-2.115 2.94 2.94 0 0 0-2.091-.876v-3.232c.012-.484-.152-.955-.463-1.324a1.93 1.93 0 0 0-1.219-.671c-.466-.042-.929.097-1.298.389a1.87 1.87 0 0 0-.685 1.181h.339v11.548h-.739V14.821h.369v-1.818c.013-.484-.152-.956-.463-1.324a1.93 1.93 0 0 0-1.219-.671 1.83 1.83 0 0 0-.756.091c-.243.083-.466.216-.656.392a1.87 1.87 0 0 0-.444.626 1.89 1.89 0 0 0-.157.754v1.272h.369V25.69h-.739V14.142h.346zM17.252 29.36h-.739v-5.982h.739v5.982zm10.422-10.65h.739v7.809h-.739V18.71z"/><linearGradient id="H" gradientUnits="userSpaceOnUse"/></defs></svg>