<svg xmlns="http://www.w3.org/2000/svg" width="44" height="44" fill="none" xmlns:v="https://vecta.io/nano"><path d="M16.317 19.336c.759 0 1.375-.616 1.375-1.375v-5.362c0-2.397 1.95-4.348 4.348-4.348s4.349 1.951 4.349 4.348v5.362c0 .759.615 1.375 1.375 1.375s1.375-.616 1.375-1.375v-5.362A7.11 7.11 0 0 0 22.04 5.5a7.11 7.11 0 0 0-7.098 7.098v5.362c0 .759.616 1.375 1.375 1.375z" fill="url(#A)"/><path d="M37.813 16.246h-7.299v1.715c0 1.517-1.233 2.75-2.75 2.75s-2.75-1.233-2.75-2.75v-1.715h-5.946v1.715c0 1.517-1.233 2.75-2.75 2.75s-2.75-1.233-2.75-2.75v-1.715h-7.38a.51.51 0 0 0-.524.668l4.811 19.592c.29 1.101 1.449 1.994 2.588 1.994h17.875c1.14 0 2.298-.893 2.589-1.994l4.81-19.592a.51.51 0 0 0-.524-.668z" fill="url(#B)"/><path d="M19.663 23.65a.96.96 0 0 1 .962-.962c.532 0 .962.431.962.962v4.778-.928a.96.96 0 1 1 1.925 0v1.153c.009-.524.436-1.634.962-1.634.531 0 .962.431.962.962 0 0 .028.716.091.759.154-.326.486-1.24.871-1.24.532 0 .963.431.963.962v4.813c0 1.063-.862 1.925-1.925 1.925H22.22a3.85 3.85 0 0 1-2.722-1.128l-1.519-1.519-2.166-.969c.004-.919.724-1.196 1.444-1.196.62 0 1.178.097 2.406.722V23.65z" fill="#fff"/><defs><linearGradient id="A" x1="22.041" y1="5.5" x2="22.041" y2="19.336" gradientUnits="userSpaceOnUse"><stop stop-color="#ef8080"/><stop offset="1" stop-color="#f0145a"/></linearGradient><linearGradient id="B" x1="22" y1="16.246" x2="22" y2="38.5" gradientUnits="userSpaceOnUse"><stop stop-color="#ef8080"/><stop offset="1" stop-color="#f0145a"/></linearGradient></defs></svg>