<svg xmlns="http://www.w3.org/2000/svg" width="44" height="44" fill="none" xmlns:v="https://vecta.io/nano"><g fill-rule="evenodd"><path d="M36.748 24.115v11.89c0 2.127-1.667 3.87-3.704 3.87H10.98c-2.038 0-3.704-1.743-3.704-3.87v-11.89h11.458v5.164l3.278 2.154 3.278-2.154v-5.164h11.458z" fill="url(#A)"/><path d="M19.882 24.115v4.543l2.13 1.399 2.13-1.399v-4.543h-4.26z" fill="url(#B)"/><path d="M8.301 10.411h27.422c1.294 0 2.352 1.174 2.352 2.609v7.049c0 1.435-1.058 2.609-2.352 2.609H24.966h-5.909H8.301c-1.294 0-2.352-1.174-2.352-2.609V13.02c0-1.435 1.058-2.609 2.352-2.609z" fill="url(#C)"/><path d="M16.302 4.094h11.419c1.061 0 1.929.868 1.929 1.929v3.009h-2.446V7.254c0-.479-.392-.873-.871-.873H17.69c-.479 0-.871.394-.871.873v1.778h-2.446V6.023c0-1.061.868-1.929 1.929-1.929z" fill="url(#D)"/></g><defs><linearGradient id="A" x1="22.012" y1="24.115" x2="22.012" y2="39.875" gradientUnits="userSpaceOnUse"><stop stop-color="#ef8080"/><stop offset="1" stop-color="#f0145a"/></linearGradient><linearGradient id="B" x1="22.012" y1="24.115" x2="22.012" y2="30.058" gradientUnits="userSpaceOnUse"><stop stop-color="#ef8080"/><stop offset="1" stop-color="#f0145a"/></linearGradient><linearGradient id="C" x1="22.012" y1="10.411" x2="22.012" y2="22.678" gradientUnits="userSpaceOnUse"><stop stop-color="#ef8080"/><stop offset="1" stop-color="#f0145a"/></linearGradient><linearGradient id="D" x1="22.012" y1="4.094" x2="22.012" y2="9.032" gradientUnits="userSpaceOnUse"><stop stop-color="#ef8080"/><stop offset="1" stop-color="#f0145a"/></linearGradient></defs></svg>