<svg xmlns="http://www.w3.org/2000/svg" xmlns:xlink="http://www.w3.org/1999/xlink" width="64" height="64" fill="none" xmlns:v="https://vecta.io/nano"><use xlink:href="#C" fill="#000"/><use xlink:href="#C" fill="url(#A)"/><use xlink:href="#D" fill="#000"/><use xlink:href="#D" fill="url(#B)"/><defs><linearGradient id="A" x1="32" y1="0" x2="32" y2="64" gradientUnits="userSpaceOnUse"><stop stop-color="#ef8080"/><stop offset="1" stop-color="#f0145a"/></linearGradient><linearGradient id="B" x1="32" y1="21.25" x2="32" y2="42.75" gradientUnits="userSpaceOnUse"><stop stop-color="#ef8080"/><stop offset="1" stop-color="#f0145a"/></linearGradient><path id="C" d="M60.526 37.727c-.687-.285-1.411-.429-2.151-.429a5.61 5.61 0 0 0-4.186 1.863l-1.22-.505-3.48-1.441A18.19 18.19 0 0 0 50.25 32c0-1.811-.267-3.562-.76-5.215l3.48-1.441 1.22-.505a5.61 5.61 0 0 0 4.186 1.863 5.59 5.59 0 0 0 2.151-.429c2.865-1.187 4.231-4.484 3.044-7.35a5.61 5.61 0 0 0-5.198-3.473 5.59 5.59 0 0 0-2.151.429c-2.258.935-3.584 3.181-3.464 5.494l-1.227.508-3.479 1.441a18.38 18.38 0 0 0-7.373-7.373l1.441-3.479.508-1.226.296.008a5.61 5.61 0 0 0 5.198-3.473c1.187-2.865-.179-6.162-3.044-7.349A5.6 5.6 0 0 0 42.926 0a5.61 5.61 0 0 0-5.198 3.473c-.935 2.258-.285 4.784 1.435 6.334l-.506 1.223-1.442 3.48c-1.653-.494-3.403-.76-5.215-.76s-3.562.267-5.215.76l-1.442-3.48-.506-1.223c1.72-1.55 2.371-4.076 1.435-6.334A5.61 5.61 0 0 0 21.074 0a5.59 5.59 0 0 0-2.151.429c-2.865 1.187-4.231 4.484-3.044 7.349a5.61 5.61 0 0 0 5.198 3.473l.296-.008.508 1.226 1.441 3.479a18.38 18.38 0 0 0-7.373 7.373l-3.479-1.441-1.227-.508c.12-2.312-1.205-4.558-3.464-5.494-.687-.285-1.411-.429-2.151-.429a5.61 5.61 0 0 0-5.198 3.473c-1.187 2.865.179 6.162 3.044 7.349.687.285 1.411.429 2.151.429a5.61 5.61 0 0 0 4.186-1.863l1.22.505 3.48 1.442A18.19 18.19 0 0 0 13.75 32c0 1.811.267 3.562.76 5.215l-3.48 1.441-1.22.505a5.61 5.61 0 0 0-4.186-1.863c-.74 0-1.464.144-2.151.429C.608 38.914-.758 42.211.429 45.077a5.61 5.61 0 0 0 5.198 3.473 5.59 5.59 0 0 0 2.151-.429c2.258-.935 3.584-3.181 3.464-5.494l1.227-.508 3.479-1.441a18.38 18.38 0 0 0 7.373 7.373l-1.441 3.479-.508 1.226-.296-.008a5.61 5.61 0 0 0-5.198 3.473c-1.187 2.865.179 6.163 3.044 7.349.688.285 1.411.429 2.151.429a5.61 5.61 0 0 0 5.198-3.473c.935-2.258.285-4.784-1.435-6.334l.506-1.223 1.442-3.48c1.653.494 3.403.76 5.215.76s3.562-.267 5.215-.76l1.441 3.48.507 1.223c-1.72 1.55-2.371 4.076-1.435 6.334A5.61 5.61 0 0 0 42.925 64c.74 0 1.464-.144 2.151-.429 2.865-1.187 4.231-4.484 3.044-7.349a5.61 5.61 0 0 0-5.198-3.473l-.296.008-.508-1.226-1.441-3.479a18.38 18.38 0 0 0 7.373-7.373l3.479 1.441 1.227.508c-.12 2.312 1.206 4.558 3.464 5.494.688.285 1.411.429 2.151.429a5.61 5.61 0 0 0 5.198-3.473c1.187-2.866-.178-6.163-3.044-7.35zM32 46.5A14.52 14.52 0 0 1 17.5 32 14.52 14.52 0 0 1 32 17.5 14.52 14.52 0 0 1 46.5 32 14.52 14.52 0 0 1 32 46.5z"/><path id="D" d="M32 21.25c-5.927 0-10.75 4.822-10.75 10.75S26.073 42.75 32 42.75 42.75 37.927 42.75 32 37.928 21.25 32 21.25zm1.875 14.875h-3.75v-8.25h3.75v8.25z"/></defs></svg>