<svg xmlns="http://www.w3.org/2000/svg" width="44" height="44" fill="none" xmlns:v="https://vecta.io/nano"><path d="M28.578 24.852a9.71 9.71 0 0 1 4.624 1.17c.256.138.49.302.73.46 2.311-4.524 3.53-9.308 3.53-13.975l-.008-.804c-.017-.381-.288-.711-.668-.795-5.111-1.117-9.739-3.884-13.378-7.996l-.542-.618a.83.83 0 0 0-.635-.288c-.262-.034-.465.093-.626.271l-.829.914c-3.452 3.799-7.801 6.422-12.574 7.59l-.55.135a.83.83 0 0 0-.643.795c-.305 11.897 6.719 20.452 9.748 23.582a28.68 28.68 0 0 0 2.604 2.371c-.326-.984-.514-2.019-.514-3.081 0-5.366 4.365-9.731 9.731-9.731z" fill="url(#A)"/><path d="M32.395 27.509c-1.168-.635-2.488-.965-3.816-.965a8.05 8.05 0 0 0-8.038 8.038c0 1.498.406 2.962 1.185 4.214a8 8 0 0 0 6.854 3.825c4.425 0 8.038-3.605 8.038-8.038a8.02 8.02 0 0 0-4.222-7.074zm.301 6.003l-6.287 4.893-2.146-3.357c-.252-.394-.137-.917.257-1.168s.918-.136 1.169.257l1.146 1.793 4.822-3.752c.368-.287.9-.221 1.187.148s.221.901-.148 1.187z" fill="url(#B)"/><defs><linearGradient id="A" x1="22.231" y1="2" x2="22.231" y2="37.664" gradientUnits="userSpaceOnUse"><stop stop-color="#ef8080"/><stop offset="1" stop-color="#f0145a"/></linearGradient><linearGradient id="B" x1="28.579" y1="26.544" x2="28.579" y2="42.621" gradientUnits="userSpaceOnUse"><stop stop-color="#ef8080"/><stop offset="1" stop-color="#f0145a"/></linearGradient></defs></svg>