<svg xmlns="http://www.w3.org/2000/svg" width="64" height="64" fill="none" xmlns:v="https://vecta.io/nano"><path d="M41.232 37.697c2.352 0 4.678.588 6.726 1.701.372.2.713.439 1.062.669 3.361-6.58 5.135-13.539 5.135-20.328l-.012-1.169c-.025-.554-.419-1.034-.972-1.157-7.434-1.625-14.166-5.649-19.458-11.631l-.788-.899c-.234-.271-.566-.418-.923-.418-.381-.049-.677.135-.911.394l-1.206 1.329c-5.022 5.526-11.348 9.342-18.289 11.04l-.8.197a1.21 1.21 0 0 0-.935 1.157c-.443 17.305 9.772 29.748 14.179 34.302 1.193 1.225 2.523 2.442 3.788 3.449-.474-1.431-.748-2.936-.748-4.482 0-7.805 6.349-14.154 14.154-14.154z" fill="url(#A)"/><path d="M46.782 41.561c-1.699-.923-3.619-1.403-5.551-1.403-6.449 0-11.692 5.243-11.692 11.692 0 2.178.591 4.308 1.723 6.129 2.154 3.483 5.871 5.563 9.969 5.563 6.437 0 11.692-5.243 11.692-11.692 0-4.308-2.351-8.246-6.141-10.289zm.437 8.732l-9.145 7.117-3.122-4.883a1.23 1.23 0 1 1 2.073-1.326l1.668 2.608 7.014-5.458a1.23 1.23 0 0 1 1.512 1.942z" fill="url(#B)"/><defs><linearGradient id="A" x1="32" y1="4.458" x2="32" y2="56.332" gradientUnits="userSpaceOnUse"><stop stop-color="#ef8080"/><stop offset="1" stop-color="#f0145a"/></linearGradient><linearGradient id="B" x1="41.231" y1="40.158" x2="41.231" y2="63.542" gradientUnits="userSpaceOnUse"><stop stop-color="#ef8080"/><stop offset="1" stop-color="#f0145a"/></linearGradient></defs></svg>