<svg xmlns="http://www.w3.org/2000/svg" width="64" height="64" fill="none" xmlns:v="https://vecta.io/nano"><path d="M43.435 16.568a2.66 2.66 0 0 0 3.671 0l3.613-3.488a2.45 2.45 0 0 0 0-3.545L41.599.734a2.66 2.66 0 0 0-3.668 0l-3.614 3.488c-1.011.979-1.011 2.565 0 3.541l9.119 8.805z" fill="url(#A)"/><path d="M21.841 37.801a2.67 2.67 0 0 0 3.668 0l3.615-3.49a2.44 2.44 0 0 0 0-3.542l-9.12-8.803c-1.013-.976-2.656-.979-3.67 0l-3.613 3.488c-1.014.979-1.011 2.565 0 3.544l9.12 8.805z" fill="url(#B)"/><path d="M63.24 38.638l-3.667-3.544c-1.017-.976-2.656-.976-3.668 0l-1.608 1.551-15.523-14.987 3.362-3.247-9.328-9.001-3.364 3.247-4.284 4.132-3.289 3.175 9.326 9.004 3.293-3.173 15.52 14.984-1.452 1.403a2.44 2.44 0 0 0 0 3.541l3.667 3.541a2.66 2.66 0 0 0 3.671 0l7.341-7.084a2.44 2.44 0 0 0 .001-3.542z" fill="url(#C)"/><path d="M36.126 49.402c0-1.603-1.347-2.906-3.01-2.906H9.609c-1.662 0-3.01 1.303-3.01 2.906v4.717H0V64h42.334v-9.881h-6.208v-4.717z" fill="url(#D)"/><defs><linearGradient id="A" x1="42.518" y1="0" x2="42.518" y2="17.303" gradientUnits="userSpaceOnUse"><stop stop-color="#ef8080"/><stop offset="1" stop-color="#f0145a"/></linearGradient><linearGradient id="B" x1="20.923" y1="21.232" x2="20.923" y2="38.532" gradientUnits="userSpaceOnUse"><stop stop-color="#ef8080"/><stop offset="1" stop-color="#f0145a"/></linearGradient><linearGradient id="C" x1="42.936" y1="9.411" x2="42.936" y2="50.001" gradientUnits="userSpaceOnUse"><stop stop-color="#ef8080"/><stop offset="1" stop-color="#f0145a"/></linearGradient><linearGradient id="D" x1="21.167" y1="46.496" x2="21.167" y2="64" gradientUnits="userSpaceOnUse"><stop stop-color="#ef8080"/><stop offset="1" stop-color="#f0145a"/></linearGradient></defs></svg>