<svg xmlns="http://www.w3.org/2000/svg" width="64" height="64" fill="none" xmlns:v="https://vecta.io/nano"><path d="M23.734 28.125a2 2 0 0 0 2-2v-7.8c0-3.487 2.837-6.325 6.324-6.325s6.325 2.838 6.325 6.325v7.8a2 2 0 1 0 4 0v-7.8A10.34 10.34 0 0 0 32.058 8a10.34 10.34 0 0 0-10.324 10.325v7.8a2 2 0 0 0 2 2z" fill="url(#A)"/><path d="M55 23.631H44.384v2.494c0 2.206-1.794 4-4 4s-4-1.794-4-4v-2.494h-8.649v2.494c0 2.206-1.794 4-4 4s-4-1.794-4-4v-2.494H9c-.552 0-.893.435-.762.971l6.998 28.497C15.658 54.701 17.344 56 19 56h26c1.658 0 3.342-1.299 3.766-2.901l6.996-28.497c.131-.537-.209-.971-.762-.971z" fill="url(#B)"/><path d="M28.6 34.4a1.4 1.4 0 0 1 2.8 0v6.95V40a1.4 1.4 0 1 1 2.8 0v1.676c.013-.762.635-2.376 1.4-2.376a1.4 1.4 0 0 1 1.4 1.4s.041 1.041.133 1.103C37.357 41.329 37.84 40 38.4 40a1.4 1.4 0 0 1 1.4 1.4v7a2.8 2.8 0 0 1-2.8 2.8h-4.68a5.6 5.6 0 0 1-3.96-1.64l-2.21-2.21L23 45.94c.005-1.337 1.053-1.74 2.1-1.74.902 0 1.714.141 3.5 1.05V34.4z" fill="#fff"/><defs><linearGradient id="A" x1="32.059" y1="8" x2="32.059" y2="28.125" gradientUnits="userSpaceOnUse"><stop stop-color="#ef8080"/><stop offset="1" stop-color="#f0145a"/></linearGradient><linearGradient id="B" x1="32" y1="23.631" x2="32" y2="56" gradientUnits="userSpaceOnUse"><stop stop-color="#ef8080"/><stop offset="1" stop-color="#f0145a"/></linearGradient></defs></svg>