<svg xmlns="http://www.w3.org/2000/svg" width="44" height="44" fill="none" xmlns:v="https://vecta.io/nano"><path d="M28.433 12.655a1.46 1.46 0 0 0 2.065 0l2.032-2.032c.57-.571.568-1.495 0-2.066L27.4 3.428a1.46 1.46 0 0 0-2.064 0L23.304 5.46a1.46 1.46 0 0 0 0 2.064l5.129 5.131z" fill="url(#A)"/><path d="M16.287 25.029c.57.568 1.494.568 2.064 0l2.033-2.034a1.46 1.46 0 0 0 0-2.064l-5.13-5.13a1.46 1.46 0 0 0-2.064 0l-2.032 2.032a1.46 1.46 0 0 0 0 2.065l5.13 5.131z" fill="url(#B)"/><path d="M39.574 25.516l-2.063-2.065a1.46 1.46 0 0 0-2.064 0l-.905.904-8.732-8.734 1.891-1.892-5.247-5.246-1.892 1.892-2.41 2.408-1.85 1.85 5.246 5.247 1.852-1.849 8.731 8.732-.817.817c-.57.568-.572 1.493 0 2.064l2.063 2.064c.572.572 1.495.572 2.065 0l4.13-4.128a1.46 1.46 0 0 0 .001-2.064z" fill="url(#C)"/><path d="M24.322 31.789c0-.934-.758-1.693-1.693-1.693H9.405c-.935 0-1.693.759-1.693 1.693v2.749H4v5.758h23.814v-5.758h-3.492v-2.749z" fill="url(#D)"/><defs><linearGradient id="A" x1="27.917" y1="3" x2="27.917" y2="13.083" gradientUnits="userSpaceOnUse"><stop stop-color="#ef8080"/><stop offset="1" stop-color="#f0145a"/></linearGradient><linearGradient id="B" x1="15.771" y1="15.373" x2="15.771" y2="25.455" gradientUnits="userSpaceOnUse"><stop stop-color="#ef8080"/><stop offset="1" stop-color="#f0145a"/></linearGradient><linearGradient id="C" x1="28.152" y1="8.484" x2="28.152" y2="32.138" gradientUnits="userSpaceOnUse"><stop stop-color="#ef8080"/><stop offset="1" stop-color="#f0145a"/></linearGradient><linearGradient id="D" x1="15.907" y1="30.096" x2="15.907" y2="40.296" gradientUnits="userSpaceOnUse"><stop stop-color="#ef8080"/><stop offset="1" stop-color="#f0145a"/></linearGradient></defs></svg>