<svg xmlns="http://www.w3.org/2000/svg" xmlns:xlink="http://www.w3.org/1999/xlink" width="64" height="64" fill="none" xmlns:v="https://vecta.io/nano"><path d="M42.006 56h-19v6h19v-6z" fill="#000"/><path d="M42.006 56h-19v6h19v-6z" fill="url(#A)"/><path d="M15.172 2.452L1.737 15.887l3.536 3.536L18.708 5.988l-3.536-3.536z" fill="#000"/><path d="M15.172 2.452L1.737 15.887l3.536 3.536L18.708 5.988l-3.536-3.536z" fill="url(#B)"/><path d="M49.113 2.322l-3.536 3.536 13.435 13.435 3.535-3.536L49.113 2.322z" fill="#000"/><path d="M49.113 2.322l-3.536 3.536 13.435 13.435 3.535-3.536L49.113 2.322z" fill="url(#C)"/><use xlink:href="#F" fill="#000"/><use xlink:href="#F" fill="url(#D)"/><use xlink:href="#G" fill="#000"/><use xlink:href="#G" fill="url(#E)"/><defs><linearGradient id="A" x1="32.506" y1="56" x2="32.506" y2="62" xlink:href="#H"><stop stop-color="#ef8080"/><stop offset="1" stop-color="#f0145a"/></linearGradient><linearGradient id="B" x1="8.455" y1="9.17" x2="11.99" y2="12.705" xlink:href="#H"><stop stop-color="#ef8080"/><stop offset="1" stop-color="#f0145a"/></linearGradient><linearGradient id="C" x1="47.345" y1="4.09" x2="60.78" y2="17.525" xlink:href="#H"><stop stop-color="#ef8080"/><stop offset="1" stop-color="#f0145a"/></linearGradient><linearGradient id="D" x1="32.143" y1="7.979" x2="32.143" y2="37.031" xlink:href="#H"><stop stop-color="#ef8080"/><stop offset="1" stop-color="#f0145a"/></linearGradient><linearGradient id="E" x1="32.412" y1="17.488" x2="32.412" y2="54.931" xlink:href="#H"><stop stop-color="#ef8080"/><stop offset="1" stop-color="#f0145a"/></linearGradient><path id="F" d="M44.556 9.707l-2.691-.114a5.06 5.06 0 0 0-2.31.211c-.743.248-1.419.666-1.973 1.22l-5.504 5.504-5.754-5.754a3.84 3.84 0 0 0-3.858-.909 3.62 3.62 0 0 1-3.611-.903l-.854-.854L7.395 18.716l1.728 1.728-.114 2.691a5.06 5.06 0 0 0 .211 2.31c.248.743.666 1.419 1.22 1.973l9.612 9.612c.129-1.262.733-2.427 1.691-3.259l-2.995-2.995.707-.707 3.128 3.128a4.95 4.95 0 0 1 1.422-.541v-3.694l-1.722-1.722.707-.707 1.015 1.015v-5.35a3.61 3.61 0 0 1 3.143-3.625c.331-.032.664-.017.991.045L26.91 17.39l.707-.707 1.796 1.796a3.54 3.54 0 0 1 3.403-1.908 3.6 3.6 0 0 1 3.175 3.332 3.56 3.56 0 0 1 1.825-.332 3.62 3.62 0 0 1 3.189 3.663v3.424c.91.19 1.749.63 2.423 1.27s1.156 1.456 1.393 2.355l2.788-2.788.707.707-3.315 3.315c0 .014.004.026.004.04v3.32a3.96 3.96 0 0 0 2.379-1.129l6.84-6.84a3.84 3.84 0 0 0 .909-3.858c-.191-.627-.207-1.294-.048-1.931a3.62 3.62 0 0 1 .952-1.68l.854-.854L46.284 7.979l-1.728 1.728z"/><path id="G" d="M29.88 21.689a2.49 2.49 0 0 0-2.726-2.189 2.6 2.6 0 0 0-2.242 2.63v11.357a4 4 0 0 0-4 4v9.674a3.84 3.84 0 0 0 2.085 3.371 3.62 3.62 0 0 1 1.399 1.331c.337.562.515 1.206.515 1.861v1.208h15v-2.444l1.984-1.822c.626-.471 1.134-1.082 1.484-1.783s.532-1.474.532-2.258V31.488a4 4 0 0 0-4-4v-4.323a2.62 2.62 0 0 0-2.276-2.668c-.63-.056-1.258.13-1.756.52s-.829.954-.927 1.579h.458V38.04h-1V22.597h.5v-2.431a2.62 2.62 0 0 0-2.276-2.668 2.5 2.5 0 0 0-1.911.645 2.5 2.5 0 0 0-.813 1.845v1.702h.5v15.443h-1V21.689h.468zM25.311 42.04h-1v-8h1v8zm14.101-14.242h1v10.443h-1V27.798z"/><linearGradient id="H" gradientUnits="userSpaceOnUse"/></defs></svg>