<svg xmlns="http://www.w3.org/2000/svg" width="64" height="64" fill="none" xmlns:v="https://vecta.io/nano"><g fill-rule="evenodd"><path d="M53.451 35.076v17.295c0 3.093-2.424 5.628-5.388 5.628H15.97c-2.964 0-5.388-2.535-5.388-5.628V35.076h16.666v7.511l4.768 3.133 4.769-3.133v-7.511h16.666z" fill="url(#A)"/><path d="M28.919 35.076v6.608l3.098 2.036 3.098-2.036v-6.608h-6.196z" fill="url(#B)"/><path d="M12.073 15.143H51.96c1.882 0 3.421 1.708 3.421 3.795v10.253c0 2.087-1.538 3.796-3.421 3.796H36.314h-8.594-15.646c-1.882 0-3.421-1.708-3.421-3.796V18.938c0-2.087 1.538-3.795 3.421-3.795z" fill="url(#C)"/><path d="M23.712 5.954h16.61c1.543 0 2.806 1.263 2.806 2.806v4.377H39.57v-2.587c0-.697-.57-1.27-1.267-1.27H25.731c-.697 0-1.268.572-1.268 1.27v2.587h-3.558V8.76c0-1.543 1.263-2.806 2.806-2.806z" fill="url(#D)"/></g><defs><linearGradient id="A" x1="32.017" y1="35.076" x2="32.017" y2="58" gradientUnits="userSpaceOnUse"><stop stop-color="#ef8080"/><stop offset="1" stop-color="#f0145a"/></linearGradient><linearGradient id="B" x1="32.017" y1="35.076" x2="32.017" y2="43.721" gradientUnits="userSpaceOnUse"><stop stop-color="#ef8080"/><stop offset="1" stop-color="#f0145a"/></linearGradient><linearGradient id="C" x1="32.016" y1="15.143" x2="32.016" y2="32.987" gradientUnits="userSpaceOnUse"><stop stop-color="#ef8080"/><stop offset="1" stop-color="#f0145a"/></linearGradient><linearGradient id="D" x1="32.017" y1="5.954" x2="32.017" y2="13.138" gradientUnits="userSpaceOnUse"><stop stop-color="#ef8080"/><stop offset="1" stop-color="#f0145a"/></linearGradient></defs></svg>